<?xml version="1.0" encoding="UTF-8" standalone="no"?><!-- Generator: Gravit.io --><svg xmlns="http://www.w3.org/2000/svg" xmlns:xlink="http://www.w3.org/1999/xlink" style="isolation:isolate" viewBox="-33.671 287.86 1231.742 172.14" width="1231.742pt" height="172.14pt"><path d=" M 905.416 301.155 C 905.416 301.155 906.797 303.054 906.797 303.054 C 897.646 310.306 896.61 318.075 896.61 331.37 C 896.61 331.37 896.61 402.16 896.61 402.16 C 896.61 410.792 892.812 419.598 876.237 429.094 C 867.604 434.101 860.352 437.554 850.683 442.216 C 838.597 438.763 826.684 429.785 826.684 419.425 C 826.684 410.447 833.59 403.714 845.331 397.843 C 845.331 397.843 847.575 399.742 847.575 399.742 C 843.432 401.987 842.05 406.649 842.05 408.721 C 842.05 417.699 851.201 428.749 867.776 430.993 C 873.992 425.986 876.755 423.397 876.755 413.382 C 876.755 413.382 876.755 369.009 876.755 369.009 C 876.755 369.009 874.51 369.009 874.51 369.009 C 866.222 369.009 860.697 371.081 857.935 376.779 C 857.935 376.779 855.345 376.088 855.345 376.088 C 856.036 356.233 866.222 350.708 876.237 350.708 C 876.237 350.708 876.755 350.708 876.755 350.708 C 876.755 350.708 876.755 342.42 876.755 342.42 C 876.755 329.471 883.316 320.492 891.258 313.759 C 891.258 313.759 890.912 313.241 890.912 313.241 C 886.078 316.003 883.833 316.694 881.589 316.694 C 875.373 316.694 863.978 311.514 856.726 311.514 C 853.273 311.514 851.719 313.068 851.719 316.176 C 851.719 317.902 851.546 319.456 851.892 320.492 C 851.892 320.492 851.546 320.665 851.546 320.665 C 849.647 319.629 846.885 318.42 846.885 318.42 C 846.885 311.169 854.482 303.399 863.632 294.594 C 873.992 297.356 889.359 303.399 899.027 303.399 C 901.963 303.399 903.516 302.536 905.416 301.155 Z  M 968.954 412.692 C 968.954 412.692 969.299 413.21 969.299 413.21 C 965.328 417.008 959.63 422.533 956.177 425.986 C 950.652 421.67 943.573 416.663 940.12 414.246 C 940.12 414.246 926.48 425.986 926.48 425.986 C 921.646 422.015 913.876 416.318 907.833 412.346 C 907.833 412.346 907.833 411.656 907.833 411.656 C 909.732 410.447 910.768 408.893 910.768 403.023 C 910.768 403.023 910.768 383.513 910.768 383.513 C 916.984 380.577 922.336 377.642 926.135 375.225 C 919.056 372.635 913.185 366.074 913.185 356.751 C 913.185 344.664 919.056 339.139 924.408 332.751 C 927.171 329.298 928.897 327.053 930.796 324.118 C 939.084 327.744 953.587 334.478 963.083 337.931 C 963.083 337.931 963.083 338.621 963.083 338.621 C 961.012 340.175 960.148 342.42 960.148 346.736 C 960.148 346.736 960.148 408.721 960.148 408.721 C 961.702 410.275 967.055 413.382 968.954 412.692 Z  M 942.365 372.117 C 942.365 372.117 942.365 347.427 942.365 347.427 C 934.94 342.938 931.66 340.866 928.207 340.866 C 925.099 340.866 917.329 343.111 917.329 356.751 C 917.329 365.901 925.444 373.326 936.667 373.326 C 938.221 373.326 940.293 372.808 942.365 372.117 Z  M 935.976 413.21 C 935.976 413.21 942.365 407.685 942.365 407.685 C 942.365 407.685 942.365 376.088 942.365 376.088 C 940.465 376.779 938.566 377.297 936.494 377.297 C 933.904 377.297 930.969 376.606 928.725 375.916 C 927.861 377.469 927.516 380.059 927.516 383.167 C 927.516 383.167 927.516 407.512 927.516 407.512 C 930.451 409.411 932.696 411.31 935.976 413.21 Z  M 1026.449 335.859 C 1026.449 335.859 1026.794 336.377 1026.794 336.377 C 1023.686 339.312 1016.953 346.736 1014.19 349.499 C 1014.19 349.499 1014.018 349.499 1014.018 349.499 C 1009.011 346.909 1001.586 341.384 996.579 335.859 C 996.579 335.859 995.889 336.204 995.889 336.204 C 995.889 336.204 995.889 401.296 995.889 401.296 C 1006.421 408.203 1012.118 409.584 1015.572 409.584 C 1017.125 409.584 1018.334 408.893 1019.025 408.203 C 1019.025 408.203 1020.579 406.476 1020.579 406.476 C 1020.579 406.476 1023.341 409.066 1023.341 409.066 C 1018.679 413.555 1012.118 420.289 1006.593 425.986 C 1000.378 422.015 983.112 413.037 975.17 409.239 C 975.17 409.239 975.17 408.548 975.17 408.548 C 976.723 407.512 978.105 406.131 978.105 401.469 C 978.105 401.469 978.105 343.283 978.105 343.283 C 986.738 338.621 998.133 331.542 1007.802 324.118 C 1021.097 336.377 1024.722 336.377 1026.449 335.859 Z  M 1094.476 412.864 C 1094.476 412.864 1094.822 413.21 1094.822 413.21 C 1091.368 416.49 1085.671 422.188 1081.527 426.159 C 1081.527 426.159 1072.376 419.425 1067.887 416.49 C 1067.887 416.49 1067.887 387.656 1067.887 387.656 C 1067.887 379.369 1064.088 375.743 1058.736 373.498 C 1058.736 373.498 1053.038 377.297 1053.038 377.297 C 1053.038 377.297 1053.038 409.757 1053.038 409.757 C 1055.11 411.483 1056.664 412.346 1058.909 414.073 C 1058.909 414.073 1058.909 414.246 1058.909 414.246 C 1055.801 417.008 1050.276 421.843 1046.132 425.986 C 1042.679 423.051 1036.463 418.735 1032.319 415.8 C 1032.319 415.8 1032.319 415.109 1032.319 415.109 C 1034.046 413.9 1035.255 412.001 1035.255 406.303 C 1035.255 406.303 1035.255 303.054 1035.255 303.054 C 1035.255 298.91 1034.909 296.148 1033.528 294.248 C 1033.528 294.248 1034.219 293.903 1034.219 293.903 C 1036.808 294.766 1040.262 297.529 1041.47 300.982 C 1041.47 300.982 1041.816 300.982 1041.816 300.982 C 1044.233 294.939 1048.722 289.932 1055.283 287.86 C 1055.283 287.86 1055.801 288.205 1055.801 288.205 C 1054.247 290.623 1053.038 293.73 1053.038 299.773 C 1053.038 299.773 1053.038 338.276 1053.038 338.276 C 1053.038 338.276 1072.549 324.118 1072.549 324.118 C 1076.347 330.161 1082.563 342.075 1086.016 348.981 C 1086.879 348.463 1087.915 347.427 1088.606 346.391 C 1088.606 346.391 1088.778 346.391 1088.778 346.391 C 1089.124 347.427 1090.332 349.844 1090.332 350.535 C 1084.807 354.506 1078.592 358.995 1072.203 363.312 C 1077.728 365.901 1085.671 370.736 1085.671 379.541 C 1085.671 379.541 1085.671 408.893 1085.671 408.893 C 1088.433 410.965 1092.404 413.037 1094.476 412.864 Z  M 1071.167 359.858 C 1067.887 352.779 1063.225 343.456 1059.945 338.276 C 1059.945 338.276 1053.038 342.765 1053.038 342.765 C 1053.038 342.765 1053.038 372.808 1053.038 372.808 C 1058.909 368.837 1065.47 364.002 1071.167 359.858 Z  M 1152.489 357.441 C 1146.274 362.103 1131.252 369.527 1121.411 374.88 C 1121.411 374.88 1121.411 401.296 1121.411 401.296 C 1131.943 408.03 1136.259 409.757 1139.367 409.757 C 1140.576 409.757 1141.784 409.066 1142.993 407.857 C 1142.993 407.857 1144.547 406.303 1144.547 406.303 C 1144.547 406.303 1147.137 409.066 1147.137 409.066 C 1143.166 412.864 1134.878 421.152 1130.562 425.986 C 1123.137 421.325 1109.497 413.555 1100.692 409.239 C 1100.692 409.239 1100.692 408.548 1100.692 408.548 C 1102.764 406.994 1103.627 405.44 1103.627 400.088 C 1103.627 400.088 1103.627 337.931 1103.627 337.931 C 1112.605 335.514 1124.519 330.507 1134.706 323.946 C 1138.677 332.578 1147.655 349.672 1152.489 357.441 Z  M 1137.123 362.103 C 1132.806 355.024 1125.209 341.902 1122.274 335.341 C 1122.274 335.341 1121.411 335.514 1121.411 335.514 C 1121.411 335.514 1121.411 370.391 1121.411 370.391 C 1126.763 367.801 1133.497 364.52 1137.123 362.103 Z  M 1195.481 406.649 C 1195.481 406.649 1198.071 409.066 1198.071 409.066 C 1198.071 409.066 1181.323 425.986 1181.323 425.986 C 1174.59 421.67 1164.575 415.8 1158.187 412.692 C 1158.187 412.692 1158.187 412.001 1158.187 412.001 C 1160.432 410.62 1161.122 407.857 1161.122 403.714 C 1161.122 403.714 1161.122 344.146 1161.122 344.146 C 1161.122 344.146 1153.871 344.146 1153.871 344.146 C 1153.871 344.146 1153.871 343.111 1153.871 343.111 C 1163.194 337.068 1172.69 320.838 1177.525 308.061 C 1177.525 308.061 1178.733 308.061 1178.733 308.061 C 1178.733 308.061 1178.733 334.132 1178.733 334.132 C 1178.733 334.132 1196.517 334.132 1196.517 334.132 C 1196.517 334.132 1192.028 344.146 1192.028 344.146 C 1192.028 344.146 1178.733 344.146 1178.733 344.146 C 1178.733 344.146 1178.733 404.922 1178.733 404.922 C 1187.021 410.275 1187.712 409.929 1190.474 409.929 C 1191.855 409.929 1193.409 409.066 1194.1 408.203 C 1194.1 408.203 1195.481 406.649 1195.481 406.649 Z  M 622.947 358.132 C 622.947 358.132 622.947 384.203 622.947 384.203 C 622.947 408.721 608.962 428.749 582.545 442.389 C 582.545 442.389 579.437 439.454 579.437 439.454 C 598.257 429.094 602.919 412.346 602.919 390.419 C 602.919 390.419 602.919 371.599 602.919 371.599 C 602.919 371.599 569.596 386.62 569.596 386.62 C 569.596 386.62 569.596 405.613 569.596 405.613 C 572.013 406.131 574.258 406.476 575.812 406.476 C 578.229 406.476 580.301 404.059 582.545 401.296 C 582.545 401.296 585.135 403.196 585.135 403.196 C 580.991 408.203 572.013 420.116 568.215 425.986 C 559.582 422.188 544.906 419.425 531.957 419.425 C 525.05 419.425 519.007 421.497 513.827 425.986 C 513.827 425.986 511.41 423.224 511.41 423.224 C 511.41 423.224 525.741 410.102 525.741 410.102 C 534.201 402.332 539.208 395.081 539.208 386.102 C 539.208 386.102 539.208 361.585 539.208 361.585 C 539.208 361.585 536.791 361.585 536.791 361.585 C 528.503 361.585 522.978 363.657 520.216 369.355 C 520.216 369.355 518.144 368.837 518.144 368.837 C 519.87 351.053 528.503 343.283 538.518 343.283 C 538.518 343.283 539.036 343.283 539.036 343.283 C 539.036 343.283 539.208 343.283 539.208 343.283 C 539.208 343.283 539.208 319.456 539.208 319.456 C 529.367 313.068 526.259 311.514 524.014 311.514 C 520.906 311.514 519.525 313.241 516.935 315.313 C 516.935 315.313 514.863 312.895 514.863 312.895 C 520.043 308.579 530.23 300.119 536.446 294.594 C 544.215 299.946 549.222 303.572 559.236 310.996 C 559.236 310.996 559.236 337.585 559.236 337.585 C 561.826 335.686 563.38 334.305 566.315 332.06 C 566.315 332.06 566.315 308.406 566.315 308.406 C 566.315 304.09 565.452 299.601 564.762 297.356 C 564.762 297.356 564.762 297.011 564.762 297.011 C 564.762 297.011 568.733 297.529 568.733 297.529 C 569.251 299.601 569.596 303.917 569.596 307.198 C 569.596 307.198 569.596 329.643 569.596 329.643 C 574.603 325.845 580.473 321.01 586.516 316.349 C 612.415 319.629 622.947 334.996 622.947 358.132 Z  M 569.596 366.765 C 569.596 366.765 602.056 352.434 602.056 352.434 C 599.293 339.312 592.042 332.751 572.358 331.715 C 572.358 331.715 569.596 333.614 569.596 333.614 C 569.596 333.614 569.596 366.765 569.596 366.765 Z  M 569.596 383.34 C 569.596 383.34 602.919 368.146 602.919 368.146 C 602.919 368.146 602.919 363.83 602.919 363.83 C 602.919 361.93 602.919 357.959 602.574 355.542 C 602.574 355.542 569.596 370.045 569.596 370.045 C 569.596 370.045 569.596 383.34 569.596 383.34 Z  M 566.315 404.749 C 566.315 404.749 566.315 336.204 566.315 336.204 C 566.315 336.204 559.236 341.729 559.236 341.729 C 559.236 341.729 559.236 373.671 559.236 373.671 C 559.236 384.548 553.366 394.217 538.518 403.714 C 538.518 403.714 538.69 404.059 538.69 404.059 C 541.625 403.023 544.733 401.814 547.841 401.814 C 553.539 401.814 560.445 403.368 566.315 404.749 Z  M 665.076 300.982 C 660.932 304.435 650.4 312.032 644.875 315.485 C 644.875 315.485 639.35 309.442 639.35 309.442 C 644.184 304.608 655.752 292.176 658.687 287.86 C 660.069 289.587 663.522 297.011 665.076 300.982 Z  M 666.284 412.692 C 666.284 412.692 666.63 413.21 666.63 413.21 C 666.63 413.21 653.162 425.986 653.162 425.986 C 649.364 423.051 641.594 417.526 636.76 414.418 C 636.76 414.418 636.76 413.728 636.76 413.728 C 639.004 412.346 639.695 410.447 639.695 405.613 C 639.695 405.613 639.695 341.384 639.695 341.384 C 639.695 341.384 637.451 340.003 637.451 340.003 C 633.825 337.758 632.616 337.758 630.717 337.758 C 630.717 337.758 630.544 337.068 630.544 337.068 C 630.544 337.068 644.012 324.118 644.012 324.118 C 647.81 327.053 655.234 332.406 660.414 335.859 C 660.414 335.859 660.414 336.55 660.414 336.55 C 658.342 337.758 657.479 339.485 657.479 344.146 C 657.479 344.146 657.479 408.893 657.479 408.893 C 662.831 412.346 664.731 412.692 666.284 412.692 Z  M 733.276 426.504 C 733.276 430.13 728.614 434.447 725.506 438.418 C 725.506 438.418 714.974 451.367 711.176 456.892 C 702.715 452.23 692.183 449.295 678.716 450.158 C 677.853 451.194 677.162 452.921 676.471 454.82 C 676.471 454.82 676.299 454.82 676.299 454.82 C 675.953 454.13 674.572 451.712 674.054 450.504 C 677.853 444.979 685.104 436.346 694.428 425.814 C 694.428 425.814 672.5 410.965 672.5 410.965 C 672.5 410.965 672.5 410.275 672.5 410.275 C 674.054 409.584 675.435 407.512 675.435 403.196 C 675.435 403.196 675.435 343.111 675.435 343.111 C 685.967 337.24 695.636 331.37 705.132 323.946 C 713.247 329.298 722.571 334.823 728.787 338.276 C 728.787 338.276 728.787 338.967 728.787 338.967 C 726.887 340.348 725.851 342.247 725.851 346.218 C 725.851 346.218 725.851 406.994 725.851 406.994 C 725.851 416.145 733.276 420.807 733.276 426.504 Z  M 704.615 413.555 C 704.615 413.555 708.068 409.584 708.068 409.584 C 708.068 409.584 708.068 345.182 708.068 345.182 C 703.924 342.42 698.744 339.139 693.737 336.204 C 693.737 336.204 693.219 336.55 693.219 336.55 C 693.219 336.55 693.219 405.267 693.219 405.267 C 693.219 405.267 704.615 413.555 704.615 413.555 Z  M 720.326 441.698 C 720.326 441.698 720.499 441.526 720.499 441.526 C 719.636 428.749 709.794 429.094 708.24 414.591 C 708.24 414.591 690.457 435.655 690.457 435.655 C 706.686 435.828 713.247 438.418 720.326 441.698 Z  M 794.915 336.55 C 794.915 336.55 794.915 337.068 794.915 337.068 C 792.67 338.449 792.497 341.039 792.497 345.01 C 792.497 345.01 792.497 409.584 792.497 409.584 C 792.497 424.778 787.663 437.036 764.699 446.705 C 764.699 446.705 761.937 445.497 761.937 445.497 C 770.915 438.245 774.714 430.993 774.714 414.936 C 774.714 414.936 774.714 342.938 774.714 342.938 C 772.124 341.211 769.534 339.83 765.39 337.24 C 765.39 337.24 759.865 341.557 759.865 341.557 C 759.865 341.557 759.865 409.757 759.865 409.757 C 761.074 410.965 764.009 412.864 765.735 414.073 C 765.735 414.073 765.735 414.418 765.735 414.418 C 762.282 417.353 755.894 422.879 753.131 425.986 C 748.988 422.533 742.599 417.699 739.146 415.282 C 739.146 415.282 739.146 414.591 739.146 414.591 C 740.873 413.728 742.081 411.483 742.081 406.303 C 742.081 406.303 742.081 303.054 742.081 303.054 C 742.081 298.91 741.736 296.148 740.355 294.248 C 740.355 294.248 741.045 293.903 741.045 293.903 C 743.463 294.594 747.088 297.529 748.297 300.982 C 748.297 300.982 748.642 300.982 748.642 300.982 C 751.232 295.284 754.685 290.105 762.11 287.86 C 762.11 287.86 762.628 288.205 762.628 288.205 C 761.074 290.623 759.865 293.73 759.865 299.773 C 759.865 299.773 759.865 337.758 759.865 337.758 C 764.354 334.305 771.433 327.917 775.75 324.118 C 781.102 327.917 788.526 332.406 794.915 336.55 Z  M 77.866 375.743 C 77.866 375.743 77.866 390.419 77.866 390.419 C 77.866 399.57 71.823 405.785 63.535 411.483 C 63.535 411.483 38.673 428.576 38.673 428.576 C 22.443 421.152 7.594 416.663 -3.629 416.663 C -16.233 416.663 -25.038 421.67 -25.038 437.9 C -25.038 437.9 -25.556 438.072 -25.556 438.072 C -25.556 438.072 -29.355 434.792 -29.355 434.792 C -26.419 415.627 -16.405 405.267 -7.254 402.678 C -5.7 399.57 -4.319 395.253 -4.319 385.757 C -4.319 385.757 -4.319 365.556 -4.319 365.556 C -4.319 365.556 -6.736 365.556 -6.736 365.556 C -15.024 365.556 -20.549 367.628 -23.312 373.326 C -23.312 373.326 -24.865 372.635 -24.865 372.635 C -23.139 354.851 -15.024 347.254 -5.01 347.254 C -5.01 347.254 -4.319 347.254 -4.319 347.254 C -4.319 347.254 -4.319 325.154 -4.319 325.154 C -16.923 316.003 -20.031 313.586 -24.693 313.586 C -27.628 313.586 -28.664 314.967 -31.599 317.385 C -31.599 317.385 -33.671 314.967 -33.671 314.967 C -33.671 314.967 -11.916 296.666 -11.916 296.666 C -5.01 302.018 6.04 309.788 15.019 316.176 C 15.019 316.176 22.961 310.651 22.961 310.651 C 22.961 310.651 22.961 308.406 22.961 308.406 C 22.961 304.09 22.098 299.601 21.407 297.356 C 21.407 297.356 21.407 297.011 21.407 297.011 C 21.407 297.011 25.033 297.529 25.033 297.529 C 25.551 299.601 26.069 303.917 26.069 307.198 C 26.069 307.198 26.069 308.406 26.069 308.406 C 26.069 308.406 42.471 296.838 42.471 296.838 C 50.068 302.536 64.399 317.557 72.168 327.399 C 72.168 327.399 47.651 344.837 47.651 344.837 C 65.78 347.427 77.866 358.995 77.866 375.743 Z  M 26.069 355.715 C 26.069 355.715 53.003 336.722 53.003 336.722 C 47.306 328.607 35.91 316.003 28.486 310.651 C 28.486 310.651 26.069 312.205 26.069 312.205 C 26.069 312.205 26.069 355.715 26.069 355.715 Z  M 58.01 400.606 C 58.01 400.606 58.01 380.405 58.01 380.405 C 58.01 366.247 48.169 357.786 31.248 357.786 C 29.349 357.786 27.45 358.477 26.069 359.34 C 26.069 359.34 26.069 401.469 26.069 401.469 C 35.738 403.886 46.27 408.721 55.421 413.382 C 55.421 413.382 55.938 413.037 55.938 413.037 C 57.665 410.275 58.01 408.721 58.01 400.606 Z  M 22.961 400.606 C 22.961 400.606 22.961 314.449 22.961 314.449 C 22.961 314.449 15.709 319.629 15.709 319.629 C 15.709 319.629 15.709 377.124 15.709 377.124 C 15.709 386.793 7.767 392.318 -2.593 400.951 C -2.593 400.951 -2.42 401.296 -2.42 401.296 C 0.515 400.433 6.213 399.052 11.738 399.052 C 14.846 399.052 19.508 399.915 22.961 400.606 Z  M 141.059 357.441 C 134.843 362.103 119.822 369.527 109.98 374.88 C 109.98 374.88 109.98 401.296 109.98 401.296 C 120.513 408.03 124.829 409.757 127.937 409.757 C 129.145 409.757 130.354 409.066 131.563 407.857 C 131.563 407.857 133.117 406.303 133.117 406.303 C 133.117 406.303 135.706 409.066 135.706 409.066 C 131.735 412.864 123.448 421.152 119.131 425.986 C 111.707 421.325 98.067 413.555 89.261 409.239 C 89.261 409.239 89.261 408.548 89.261 408.548 C 91.333 406.994 92.197 405.44 92.197 400.088 C 92.197 400.088 92.197 337.931 92.197 337.931 C 101.175 335.514 113.088 330.507 123.275 323.946 C 127.246 332.578 136.224 349.672 141.059 357.441 Z  M 125.692 362.103 C 121.376 355.024 113.779 341.902 110.844 335.341 C 110.844 335.341 109.98 335.514 109.98 335.514 C 109.98 335.514 109.98 370.391 109.98 370.391 C 115.333 367.801 122.066 364.52 125.692 362.103 Z  M 196.655 343.283 C 193.202 346.736 188.885 352.434 185.605 356.923 C 185.605 356.923 184.914 356.923 184.914 356.923 C 180.598 352.261 174.209 342.938 172.137 337.931 C 172.137 337.931 168.511 341.729 168.511 341.729 C 168.511 341.729 168.511 404.577 168.511 404.577 C 176.799 409.757 178.353 410.447 180.943 410.447 C 182.151 410.447 183.187 409.411 184.223 408.203 C 184.223 408.203 185.777 406.476 185.777 406.476 C 185.777 406.476 188.712 409.066 188.712 409.066 C 178.526 419.253 171.965 425.986 171.965 425.986 C 164.713 421.152 156.771 416.836 147.793 412.519 C 147.793 412.519 147.793 411.828 147.793 411.828 C 149.692 410.102 150.728 408.548 150.728 403.196 C 150.728 403.196 150.728 341.384 150.728 341.384 C 147.102 338.621 144.685 337.585 142.095 337.413 C 142.095 337.413 141.75 336.895 141.75 336.895 C 145.721 333.269 150.9 328.607 154.872 324.118 C 159.706 328.089 164.886 332.751 169.202 336.204 C 175.245 331.024 177.144 328.953 182.151 324.118 C 185.432 329.298 191.302 337.585 196.655 343.283 Z  M 264.855 412.864 C 264.855 412.864 265.2 413.21 265.2 413.21 C 261.747 416.49 256.049 422.188 251.905 426.159 C 251.905 426.159 242.754 419.425 238.265 416.49 C 238.265 416.49 238.265 387.656 238.265 387.656 C 238.265 379.369 234.467 375.743 229.114 373.498 C 229.114 373.498 223.417 377.297 223.417 377.297 C 223.417 377.297 223.417 409.757 223.417 409.757 C 225.489 411.483 227.043 412.346 229.287 414.073 C 229.287 414.073 229.287 414.246 229.287 414.246 C 226.179 417.008 220.654 421.843 216.51 425.986 C 213.057 423.051 206.842 418.735 202.698 415.8 C 202.698 415.8 202.698 415.109 202.698 415.109 C 204.424 413.9 205.633 412.001 205.633 406.303 C 205.633 406.303 205.633 303.054 205.633 303.054 C 205.633 298.91 205.288 296.148 203.906 294.248 C 203.906 294.248 204.597 293.903 204.597 293.903 C 207.187 294.766 210.64 297.529 211.849 300.982 C 211.849 300.982 212.194 300.982 212.194 300.982 C 214.611 294.939 219.1 289.932 225.661 287.86 C 225.661 287.86 226.179 288.205 226.179 288.205 C 224.625 290.623 223.417 293.73 223.417 299.773 C 223.417 299.773 223.417 338.276 223.417 338.276 C 223.417 338.276 242.927 324.118 242.927 324.118 C 246.726 330.161 252.941 342.075 256.394 348.981 C 257.258 348.463 258.294 347.427 258.984 346.391 C 258.984 346.391 259.157 346.391 259.157 346.391 C 259.502 347.427 260.711 349.844 260.711 350.535 C 255.186 354.506 248.97 358.995 242.582 363.312 C 248.107 365.901 256.049 370.736 256.049 379.541 C 256.049 379.541 256.049 408.893 256.049 408.893 C 258.812 410.965 262.783 413.037 264.855 412.864 Z  M 241.546 359.858 C 238.265 352.779 233.604 343.456 230.323 338.276 C 230.323 338.276 223.417 342.765 223.417 342.765 C 223.417 342.765 223.417 372.808 223.417 372.808 C 229.287 368.837 235.848 364.002 241.546 359.858 Z  M 322.868 357.441 C 316.652 362.103 301.631 369.527 291.789 374.88 C 291.789 374.88 291.789 401.296 291.789 401.296 C 302.321 408.03 306.638 409.757 309.746 409.757 C 310.954 409.757 312.163 409.066 313.372 407.857 C 313.372 407.857 314.925 406.303 314.925 406.303 C 314.925 406.303 317.515 409.066 317.515 409.066 C 313.544 412.864 305.257 421.152 300.94 425.986 C 293.516 421.325 279.876 413.555 271.07 409.239 C 271.07 409.239 271.07 408.548 271.07 408.548 C 273.142 406.994 274.006 405.44 274.006 400.088 C 274.006 400.088 274.006 337.931 274.006 337.931 C 282.984 335.514 294.897 330.507 305.084 323.946 C 309.055 332.578 318.033 349.672 322.868 357.441 Z  M 307.501 362.103 C 303.185 355.024 295.588 341.902 292.653 335.341 C 292.653 335.341 291.789 335.514 291.789 335.514 C 291.789 335.514 291.789 370.391 291.789 370.391 C 297.142 367.801 303.875 364.52 307.501 362.103 Z  M 357.572 412.692 C 357.572 412.692 357.917 413.037 357.917 413.037 C 354.464 416.318 348.766 422.015 344.623 425.986 C 339.616 422.188 332.537 417.353 328.047 414.418 C 328.047 414.418 328.047 413.728 328.047 413.728 C 330.119 412.864 330.983 410.62 330.983 405.44 C 330.983 405.44 330.983 303.054 330.983 303.054 C 330.983 298.91 330.637 296.148 329.256 294.248 C 329.256 294.248 329.947 293.903 329.947 293.903 C 332.364 294.594 335.817 297.356 337.198 300.982 C 337.198 300.982 337.544 300.982 337.544 300.982 C 339.788 295.112 344.968 289.587 351.011 287.86 C 351.011 287.86 351.529 288.205 351.529 288.205 C 350.148 290.623 348.766 293.73 348.766 299.773 C 348.766 299.773 348.766 408.721 348.766 408.721 C 351.529 410.792 355.5 412.864 357.572 412.692 Z  M 415.585 357.441 C 409.369 362.103 394.348 369.527 384.507 374.88 C 384.507 374.88 384.507 401.296 384.507 401.296 C 395.039 408.03 399.355 409.757 402.463 409.757 C 403.672 409.757 404.88 409.066 406.089 407.857 C 406.089 407.857 407.643 406.303 407.643 406.303 C 407.643 406.303 410.233 409.066 410.233 409.066 C 406.262 412.864 397.974 421.152 393.657 425.986 C 386.233 421.325 372.593 413.555 363.788 409.239 C 363.788 409.239 363.788 408.548 363.788 408.548 C 365.86 406.994 366.723 405.44 366.723 400.088 C 366.723 400.088 366.723 337.931 366.723 337.931 C 375.701 335.514 387.614 330.507 397.801 323.946 C 401.772 332.578 410.751 349.672 415.585 357.441 Z  M 400.218 362.103 C 395.902 355.024 388.305 341.902 385.37 335.341 C 385.37 335.341 384.507 335.514 384.507 335.514 C 384.507 335.514 384.507 370.391 384.507 370.391 C 389.859 367.801 396.593 364.52 400.218 362.103 Z  M 482.058 458.446 C 482.058 458.446 479.469 460 479.469 460 C 479.469 453.094 476.361 447.569 463.239 447.569 C 449.944 447.569 441.656 456.202 428.707 456.202 C 420.247 456.202 414.376 451.54 414.376 443.08 C 414.376 430.821 423.355 425.123 438.721 421.497 C 438.721 421.497 438.721 421.152 438.721 421.152 C 438.721 421.152 423.009 412.692 423.009 412.692 C 423.009 412.692 423.009 412.001 423.009 412.001 C 424.909 410.965 425.945 408.721 425.945 405.267 C 425.945 405.267 425.945 341.384 425.945 341.384 C 421.973 338.621 419.038 337.413 416.966 337.585 C 416.966 337.585 416.794 337.068 416.794 337.068 C 419.729 334.305 426.463 328.089 430.261 324.118 C 435.441 328.089 442.174 332.924 446.663 335.859 C 446.663 335.859 446.663 336.55 446.663 336.55 C 444.592 337.931 443.728 339.485 443.728 344.837 C 443.728 344.837 443.728 406.476 443.728 406.476 C 446.491 408.203 453.052 411.828 458.232 414.591 C 458.232 414.591 458.577 414.246 458.577 414.246 C 458.577 414.246 458.577 340.521 458.577 340.521 C 456.505 338.794 454.606 337.413 452.707 336.204 C 452.707 336.204 452.707 336.032 452.707 336.032 C 456.505 332.751 461.685 327.744 465.138 324.118 C 468.764 327.053 475.152 332.06 479.296 334.996 C 479.296 334.996 479.296 335.686 479.296 335.686 C 477.224 336.895 476.361 338.794 476.361 344.492 C 476.361 344.492 476.361 417.181 476.361 417.181 C 467.382 418.735 455.296 421.497 444.937 424.26 C 433.369 427.368 419.556 431.166 419.556 442.044 C 419.556 447.051 421.973 449.468 427.326 449.468 C 436.995 449.468 447.872 433.238 461.685 433.238 C 475.152 433.238 481.886 442.044 482.058 458.446 Z " fill="rgb(255,255,255)"/></svg>