<svg xmlns="http://www.w3.org/2000/svg" xmlns:xlink="http://www.w3.org/1999/xlink" style="isolation:isolate" viewBox="-1921 -14.868 5111.38 533.876" width="5111.38pt" height="533.876pt"><path d=" M 1731.487 355.802 L 1731.487 355.802 L 1731.487 48.754 L 1731.487 48.754 Q 1731.487 40.456 1725.955 35.477 L 1725.955 35.477 L 1689.441 0.623 L 1689.441 -0.484 L 1873.67 -0.484 L 1873.67 0.623 L 1837.156 35.477 L 1837.156 35.477 Q 1831.624 40.456 1831.624 48.754 L 1831.624 48.754 L 1831.624 323.161 L 1831.624 323.161 Q 1831.624 406.7 1786.811 454.556 L 1786.811 454.556 L 1786.811 454.556 Q 1741.999 502.411 1657.353 505.177 L 1657.353 505.177 L 1656.8 504.071 L 1656.8 504.071 Q 1731.487 465.897 1731.487 355.802 Z  M 2122.628 221.918 L 2122.628 221.918 L 2122.628 221.918 Q 2122.628 225.238 2122.351 233.26 L 2122.351 233.26 L 2122.351 233.26 Q 2122.074 241.282 2122.074 241.835 L 2122.074 241.835 L 2118.755 320.395 L 2118.755 320.395 Q 2117.095 352.483 2133.693 352.483 L 2133.693 352.483 L 2133.693 352.483 Q 2144.204 352.483 2149.183 342.525 L 2149.183 342.525 L 2150.29 342.525 L 2150.29 342.525 Q 2150.29 353.589 2145.864 362.441 L 2145.864 362.441 L 2145.864 362.441 Q 2130.926 392.869 2091.646 392.869 L 2091.646 392.869 L 2091.646 392.869 Q 2066.751 392.869 2049.6 378.762 L 2049.6 378.762 L 2049.6 378.762 Q 2032.45 364.654 2031.343 339.205 L 2031.343 339.205 L 2031.343 339.205 Q 2023.045 363.548 2002.851 378.209 L 2002.851 378.209 L 2002.851 378.209 Q 1982.658 392.869 1956.103 392.869 L 1956.103 392.869 L 1956.103 392.869 Q 1924.015 392.869 1902.438 372.123 L 1902.438 372.123 L 1902.438 372.123 Q 1880.862 351.376 1880.862 314.863 L 1880.862 314.863 L 1880.862 314.863 Q 1880.862 276.136 1908.801 253.73 L 1908.801 253.73 L 1908.801 253.73 Q 1936.739 231.324 1973.806 231.324 L 1973.806 231.324 L 1973.806 231.324 Q 2011.427 231.324 2032.45 246.261 L 2032.45 246.261 L 2033.556 187.064 L 2033.556 184.298 L 2033.556 184.298 Q 2033.556 120.676 1993.17 120.676 L 1993.17 120.676 L 1993.17 120.676 Q 1984.871 120.676 1982.935 121.782 L 1982.935 121.782 L 1982.935 121.782 Q 1980.998 122.889 1978.232 127.314 L 1978.232 127.314 L 1933.42 210.3 L 1932.313 210.3 L 1897.459 131.187 L 1897.459 131.187 Q 1956.103 110.164 2009.214 110.164 L 2009.214 110.164 L 2009.214 110.164 Q 2067.857 110.164 2094.966 135.613 L 2094.966 135.613 L 2094.966 135.613 Q 2122.628 161.615 2122.628 221.918 Z  M 2011.98 248.474 L 2011.98 248.474 L 2011.98 248.474 Q 1990.957 248.474 1979.062 264.518 L 1979.062 264.518 L 1979.062 264.518 Q 1967.167 280.562 1967.167 305.458 L 1967.167 305.458 L 1967.167 305.458 Q 1967.167 327.587 1976.296 340.035 L 1976.296 340.035 L 1976.296 340.035 Q 1985.424 352.483 1999.809 352.483 L 1999.809 352.483 L 1999.809 352.483 Q 2018.619 352.483 2031.343 333.12 L 2031.343 333.12 L 2031.343 332.566 L 2032.45 251.793 L 2032.45 251.793 Q 2022.491 248.474 2011.98 248.474 Z  M 2294.132 392.869 L 2294.132 392.869 L 2294.132 392.869 Q 2240.468 392.869 2202.847 356.909 L 2202.847 356.909 L 2202.847 356.909 Q 2165.227 320.948 2165.227 254.56 L 2165.227 254.56 L 2165.227 254.56 Q 2165.227 216.386 2177.952 187.341 L 2177.952 187.341 L 2177.952 187.341 Q 2190.676 158.296 2212.253 141.975 L 2212.253 141.975 L 2212.253 141.975 Q 2233.829 125.655 2259.001 117.909 L 2259.001 117.909 L 2259.001 117.909 Q 2284.174 110.164 2312.389 110.164 L 2312.389 110.164 L 2312.389 110.164 Q 2356.648 110.164 2406.44 126.761 L 2406.44 126.761 L 2371.032 221.918 L 2369.926 221.918 L 2327.326 127.314 L 2327.326 127.314 Q 2325.667 122.889 2324.007 121.782 L 2324.007 121.782 L 2324.007 121.782 Q 2322.347 120.676 2317.368 120.676 L 2317.368 120.676 L 2314.602 120.676 L 2314.602 120.676 Q 2262.044 120.676 2262.044 228.004 L 2262.044 228.004 L 2262.044 228.004 Q 2262.044 286.647 2283.344 313.756 L 2283.344 313.756 L 2283.344 313.756 Q 2304.644 340.865 2336.731 340.865 L 2336.731 340.865 L 2336.731 340.865 Q 2380.991 340.865 2404.78 295.499 L 2404.78 295.499 L 2405.886 295.499 L 2405.886 295.499 Q 2398.694 341.418 2369.926 367.144 L 2369.926 367.144 L 2369.926 367.144 Q 2341.157 392.869 2294.132 392.869 Z  M 2626.629 202.555 L 2626.629 202.555 L 2700.763 348.61 L 2700.763 348.61 Q 2705.742 358.015 2713.488 365.761 L 2713.488 365.761 L 2736.724 387.337 L 2736.724 388.444 L 2619.437 388.444 L 2558.027 257.879 L 2558.027 257.879 Q 2555.261 251.24 2548.069 251.24 L 2548.069 251.24 L 2548.069 251.24 Q 2544.749 251.24 2541.983 253.453 L 2541.983 253.453 L 2541.983 348.61 L 2541.983 348.61 Q 2541.983 356.909 2547.516 361.888 L 2547.516 361.888 L 2574.624 387.337 L 2574.624 388.444 L 2419.717 388.444 L 2419.717 387.337 L 2446.826 361.888 L 2446.826 361.888 Q 2451.805 356.909 2451.805 348.61 L 2451.805 348.61 L 2451.805 39.903 L 2451.805 39.903 Q 2451.805 31.051 2446.826 26.072 L 2446.826 26.072 L 2419.717 0.623 L 2419.717 -0.484 L 2541.983 -14.868 L 2541.983 247.367 L 2631.608 180.425 L 2631.608 180.425 Q 2637.694 176 2632.715 169.361 L 2632.715 169.361 L 2595.094 115.696 L 2595.094 114.59 L 2730.638 114.59 L 2730.638 115.696 L 2629.395 192.597 L 2629.395 192.597 Q 2623.863 196.469 2626.629 202.555 Z  M 2987.894 239.069 L 2987.894 239.069 L 2821.922 239.069 L 2821.922 240.175 L 2821.922 240.175 Q 2821.922 291.073 2844.052 316.246 L 2844.052 316.246 L 2844.052 316.246 Q 2866.182 341.418 2901.036 341.418 L 2901.036 341.418 L 2901.036 341.418 Q 2959.679 341.418 2985.128 290.52 L 2985.128 290.52 L 2986.235 290.52 L 2986.235 290.52 Q 2965.212 392.869 2863.969 392.869 L 2863.969 392.869 L 2863.969 392.869 Q 2806.985 392.869 2767.705 357.462 L 2767.705 357.462 L 2767.705 357.462 Q 2728.425 322.055 2728.425 253.453 L 2728.425 253.453 L 2728.425 253.453 Q 2728.425 180.979 2767.705 145.571 L 2767.705 145.571 L 2767.705 145.571 Q 2806.985 110.164 2867.288 110.164 L 2867.288 110.164 L 2867.288 110.164 Q 2890.524 110.164 2910.994 116.25 L 2910.994 116.25 L 2910.994 116.25 Q 2931.464 122.335 2949.444 135.06 L 2949.444 135.06 L 2949.444 135.06 Q 2967.424 147.784 2977.936 171.297 L 2977.936 171.297 L 2977.936 171.297 Q 2988.448 194.81 2988.448 226.898 L 2988.448 226.898 L 2988.448 226.898 Q 2988.448 232.43 2987.894 239.069 Z  M 2866.182 120.676 L 2866.182 120.676 L 2866.182 120.676 Q 2844.605 120.676 2833.541 145.848 L 2833.541 145.848 L 2833.541 145.848 Q 2822.476 171.02 2821.922 229.111 L 2821.922 229.111 L 2903.249 229.111 L 2903.249 229.111 Q 2903.802 221.918 2903.802 212.513 L 2903.802 212.513 L 2903.802 212.513 Q 2903.802 161.062 2894.12 140.869 L 2894.12 140.869 L 2894.12 140.869 Q 2884.439 120.676 2866.182 120.676 Z  M 3122.332 114.59 L 3190.38 114.59 L 3190.38 125.655 L 3122.332 125.655 L 3122.332 310.437 L 3122.332 310.437 Q 3122.332 329.247 3130.077 339.482 L 3130.077 339.482 L 3130.077 339.482 Q 3137.822 349.717 3151.653 349.717 L 3151.653 349.717 L 3151.653 349.717 Q 3172.676 349.717 3183.741 329.247 L 3183.741 329.247 L 3184.848 329.8 L 3184.848 329.8 Q 3179.868 356.356 3160.228 374.613 L 3160.228 374.613 L 3160.228 374.613 Q 3140.588 392.869 3104.075 392.869 L 3104.075 392.869 L 3104.075 392.869 Q 3032.153 392.869 3032.153 317.076 L 3032.153 317.076 L 3032.153 125.655 L 3001.725 125.655 L 3001.725 114.59 L 3026.621 114.59 L 3026.621 114.59 Q 3038.239 114.59 3043.772 108.504 L 3043.772 108.504 L 3121.225 21.646 L 3122.332 21.646 L 3122.332 114.59 Z  M 733.996 48.754 L 733.996 48.754 L 733.996 339.205 L 733.996 339.205 Q 733.996 347.504 738.976 352.483 L 738.976 352.483 L 775.489 387.337 L 775.489 388.444 L 591.814 388.444 L 591.814 387.337 L 628.328 352.483 L 628.328 352.483 Q 633.86 346.951 633.86 339.205 L 633.86 339.205 L 633.86 194.81 L 505.509 194.81 L 505.509 339.205 L 505.509 339.205 Q 505.509 347.504 511.041 352.483 L 511.041 352.483 L 547.555 387.337 L 547.555 388.444 L 363.326 388.444 L 363.326 387.337 L 400.393 352.483 L 400.393 352.483 Q 405.372 347.504 405.372 339.205 L 405.372 339.205 L 405.372 48.754 L 405.372 48.754 Q 405.372 40.456 400.393 35.477 L 400.393 35.477 L 363.326 0.623 L 363.326 -0.484 L 547.555 -0.484 L 547.555 0.623 L 511.041 35.477 L 511.041 35.477 Q 505.509 40.456 505.509 48.754 L 505.509 48.754 L 505.509 183.745 L 633.86 183.745 L 633.86 48.754 L 633.86 48.754 Q 633.86 40.456 628.328 35.477 L 628.328 35.477 L 591.814 0.623 L 591.814 -0.484 L 775.489 -0.484 L 775.489 0.623 L 738.976 35.477 L 738.976 35.477 Q 733.996 40.456 733.996 48.754 Z  M 871.2 84.162 L 871.2 84.162 L 871.2 84.162 Q 852.943 84.162 839.942 72.82 L 839.942 72.82 L 839.942 72.82 Q 826.941 61.479 826.941 43.222 L 826.941 43.222 L 826.941 43.222 Q 826.941 23.859 839.942 11.964 L 839.942 11.964 L 839.942 11.964 Q 852.943 0.069 871.2 0.069 L 871.2 0.069 L 871.2 0.069 Q 890.563 0.069 903.288 11.964 L 903.288 11.964 L 903.288 11.964 Q 916.012 23.859 916.012 43.222 L 916.012 43.222 L 916.012 43.222 Q 916.012 61.479 903.288 72.82 L 903.288 72.82 L 903.288 72.82 Q 890.563 84.162 871.2 84.162 Z  M 795.406 115.696 L 795.406 114.59 L 918.225 114.59 L 918.225 348.61 L 918.225 348.61 Q 918.225 357.462 923.204 361.888 L 923.204 361.888 L 950.313 387.337 L 950.313 388.444 L 795.406 388.444 L 795.406 387.337 L 822.515 361.888 L 822.515 361.888 Q 827.494 357.462 827.494 348.61 L 827.494 348.61 L 827.494 157.189 L 827.494 157.189 Q 827.494 148.891 822.515 143.358 L 822.515 143.358 L 795.406 115.696 Z  M 974.656 202.002 L 974.656 202.002 L 974.656 202.002 Q 974.656 156.636 1007.297 133.4 L 1007.297 133.4 L 1007.297 133.4 Q 1039.938 110.164 1093.602 110.164 L 1093.602 110.164 L 1093.602 110.164 Q 1140.628 110.164 1169.396 125.655 L 1169.396 125.655 L 1169.396 125.655 Q 1175.482 128.974 1181.014 122.889 L 1181.014 122.889 L 1238.551 62.032 L 1239.657 62.585 L 1239.657 145.571 L 1187.653 145.571 L 1187.653 145.571 Q 1215.868 168.254 1215.868 205.321 L 1215.868 205.321 L 1215.868 205.321 Q 1215.868 249.027 1182.95 270.327 L 1182.95 270.327 L 1182.95 270.327 Q 1150.033 291.627 1095.262 291.627 L 1095.262 291.627 L 1095.262 291.627 Q 1068.706 291.627 1050.45 287.201 L 1050.45 287.201 L 1050.45 287.201 Q 1033.299 293.84 1033.299 307.671 L 1033.299 307.671 L 1033.299 307.671 Q 1033.299 332.013 1089.73 332.013 L 1089.73 332.013 L 1141.181 332.013 L 1141.181 332.013 Q 1240.211 332.013 1240.211 405.594 L 1240.211 405.594 L 1240.211 405.594 Q 1240.211 455.939 1195.952 487.473 L 1195.952 487.473 L 1195.952 487.473 Q 1151.692 519.008 1084.197 519.008 L 1084.197 519.008 L 1084.197 519.008 Q 1038.831 519.008 1004.807 504.347 L 1004.807 504.347 L 1004.807 504.347 Q 970.783 489.686 970.783 463.131 L 970.783 463.131 L 970.783 463.131 Q 970.783 445.427 986.55 431.873 L 986.55 431.873 L 986.55 431.873 Q 1002.318 418.318 1034.959 413.339 L 1034.959 413.339 L 1034.959 413.339 Q 1006.19 407.254 990.423 391.21 L 990.423 391.21 L 990.423 391.21 Q 974.656 375.166 974.656 353.036 L 974.656 353.036 L 974.656 353.036 Q 974.656 328.694 993.466 310.99 L 993.466 310.99 L 993.466 310.99 Q 1012.276 293.286 1044.364 285.541 L 1044.364 285.541 L 1044.364 285.541 Q 974.656 267.837 974.656 202.002 Z  M 1131.222 418.318 L 1059.301 416.106 L 1059.301 416.106 Q 1046.577 414.999 1039.938 413.893 L 1039.938 413.893 L 1039.938 413.893 Q 1017.808 427.17 1017.808 449.3 L 1017.808 449.3 L 1017.808 449.3 Q 1017.808 475.855 1043.257 491.623 L 1043.257 491.623 L 1043.257 491.623 Q 1068.706 507.39 1103.007 507.39 L 1103.007 507.39 L 1103.007 507.39 Q 1136.202 507.39 1160.268 493.559 L 1160.268 493.559 L 1160.268 493.559 Q 1184.333 479.728 1184.333 454.279 L 1184.333 454.279 L 1184.333 454.279 Q 1184.333 437.129 1172.439 428.277 L 1172.439 428.277 L 1172.439 428.277 Q 1160.544 419.425 1131.222 418.318 L 1131.222 418.318 Z  M 1059.855 200.342 L 1059.855 200.342 L 1059.855 200.342 Q 1059.855 244.601 1068.706 263.411 L 1068.706 263.411 L 1068.706 263.411 Q 1077.558 282.222 1095.262 282.222 L 1095.262 282.222 L 1095.262 282.222 Q 1112.966 282.222 1121.817 263.688 L 1121.817 263.688 L 1121.817 263.688 Q 1130.669 245.155 1130.669 200.895 L 1130.669 200.895 L 1130.669 200.895 Q 1130.669 157.189 1122.094 138.379 L 1122.094 138.379 L 1122.094 138.379 Q 1113.519 119.569 1095.262 119.569 L 1095.262 119.569 L 1095.262 119.569 Q 1077.005 119.569 1068.43 138.103 L 1068.43 138.103 L 1068.43 138.103 Q 1059.855 156.636 1059.855 200.342 Z  M 1547.812 226.898 L 1547.812 226.898 L 1547.812 226.898 Q 1547.812 246.814 1546.982 293.01 L 1546.982 293.01 L 1546.982 293.01 Q 1546.152 339.205 1546.152 348.61 L 1546.152 348.61 L 1546.152 348.61 Q 1546.152 356.909 1551.685 361.888 L 1551.685 361.888 L 1578.793 387.337 L 1578.793 388.444 L 1423.886 388.444 L 1423.886 387.337 L 1449.888 361.888 L 1449.888 361.888 Q 1455.421 356.909 1455.421 349.164 L 1455.421 349.164 L 1455.421 349.164 Q 1455.421 347.504 1456.251 301.308 L 1456.251 301.308 L 1456.251 301.308 Q 1457.081 255.113 1457.081 239.622 L 1457.081 239.622 L 1457.081 239.622 Q 1457.081 198.129 1447.952 177.106 L 1447.952 177.106 L 1447.952 177.106 Q 1438.824 156.083 1415.034 156.083 L 1415.034 156.083 L 1415.034 156.083 Q 1390.692 156.083 1373.541 180.979 L 1373.541 180.979 L 1373.541 348.61 L 1373.541 348.61 Q 1373.541 356.909 1379.074 361.888 L 1379.074 361.888 L 1406.183 387.337 L 1406.183 388.444 L 1251.275 388.444 L 1251.275 387.337 L 1278.384 361.888 L 1278.384 361.888 Q 1283.363 356.909 1283.363 348.61 L 1283.363 348.61 L 1283.363 39.903 L 1283.363 39.903 Q 1283.363 31.051 1278.384 26.072 L 1278.384 26.072 L 1251.275 0.623 L 1251.275 -0.484 L 1373.541 -14.868 L 1373.541 174.893 L 1373.541 174.893 Q 1396.224 110.164 1461.506 110.164 L 1461.506 110.164 L 1461.506 110.164 Q 1503.553 110.164 1525.682 140.039 L 1525.682 140.039 L 1525.682 140.039 Q 1547.812 169.914 1547.812 226.898 Z  M -1921 0.623 L -1921 -0.484 L -1722.94 -0.484 L -1722.94 -0.484 Q -1656.552 -0.484 -1620.038 21.646 L -1620.038 21.646 L -1620.038 21.646 Q -1583.524 43.775 -1583.524 88.588 L -1583.524 88.588 L -1583.524 88.588 Q -1583.524 130.081 -1614.229 154.423 L -1614.229 154.423 L -1614.229 154.423 Q -1644.933 178.766 -1698.044 183.192 L -1698.044 183.192 L -1698.044 184.298 L -1698.044 184.298 Q -1641.061 185.405 -1606.207 210.3 L -1606.207 210.3 L -1606.207 210.3 Q -1571.353 235.196 -1571.353 279.455 L -1571.353 279.455 L -1571.353 279.455 Q -1571.353 330.907 -1609.526 359.675 L -1609.526 359.675 L -1609.526 359.675 Q -1647.7 388.444 -1713.535 388.444 L -1713.535 388.444 L -1921 388.444 L -1921 387.337 L -1883.933 352.483 L -1883.933 352.483 Q -1878.954 347.504 -1878.954 339.205 L -1878.954 339.205 L -1878.954 48.754 L -1878.954 48.754 Q -1878.954 40.456 -1883.933 35.477 L -1883.933 35.477 L -1921 0.623 Z  M -1751.709 191.49 L -1751.709 191.49 L -1778.817 191.49 L -1778.817 366.314 L -1778.817 366.314 Q -1778.817 374.059 -1776.604 375.719 L -1776.604 375.719 L -1776.604 375.719 Q -1774.392 377.379 -1765.54 377.379 L -1765.54 377.379 L -1750.049 377.379 L -1750.049 377.379 Q -1678.681 377.379 -1678.681 282.775 L -1678.681 282.775 L -1678.681 282.775 Q -1678.681 237.409 -1696.108 214.45 L -1696.108 214.45 L -1696.108 214.45 Q -1713.535 191.49 -1751.709 191.49 Z  M -1778.817 21.646 L -1778.817 21.646 L -1778.817 180.425 L -1752.262 180.425 L -1752.262 180.425 Q -1721.281 180.425 -1704.683 157.466 L -1704.683 157.466 L -1704.683 157.466 Q -1688.086 134.507 -1688.086 93.014 L -1688.086 93.014 L -1688.086 93.014 Q -1688.086 55.393 -1704.13 32.987 L -1704.13 32.987 L -1704.13 32.987 Q -1720.174 10.581 -1750.049 10.581 L -1750.049 10.581 L -1768.859 10.581 L -1768.859 10.581 Q -1774.945 10.581 -1776.881 12.517 L -1776.881 12.517 L -1776.881 12.517 Q -1778.817 14.454 -1778.817 21.646 Z  M -1285.328 239.069 L -1285.328 239.069 L -1451.3 239.069 L -1451.3 240.175 L -1451.3 240.175 Q -1451.3 291.073 -1429.17 316.246 L -1429.17 316.246 L -1429.17 316.246 Q -1407.04 341.418 -1372.186 341.418 L -1372.186 341.418 L -1372.186 341.418 Q -1313.543 341.418 -1288.094 290.52 L -1288.094 290.52 L -1286.988 290.52 L -1286.988 290.52 Q -1308.011 392.869 -1409.253 392.869 L -1409.253 392.869 L -1409.253 392.869 Q -1466.237 392.869 -1505.517 357.462 L -1505.517 357.462 L -1505.517 357.462 Q -1544.797 322.055 -1544.797 253.453 L -1544.797 253.453 L -1544.797 253.453 Q -1544.797 180.979 -1505.517 145.571 L -1505.517 145.571 L -1505.517 145.571 Q -1466.237 110.164 -1405.934 110.164 L -1405.934 110.164 L -1405.934 110.164 Q -1382.698 110.164 -1362.228 116.25 L -1362.228 116.25 L -1362.228 116.25 Q -1341.758 122.335 -1323.778 135.06 L -1323.778 135.06 L -1323.778 135.06 Q -1305.798 147.784 -1295.286 171.297 L -1295.286 171.297 L -1295.286 171.297 Q -1284.775 194.81 -1284.775 226.898 L -1284.775 226.898 L -1284.775 226.898 Q -1284.775 232.43 -1285.328 239.069 Z  M -1407.04 120.676 L -1407.04 120.676 L -1407.04 120.676 Q -1428.617 120.676 -1439.682 145.848 L -1439.682 145.848 L -1439.682 145.848 Q -1450.746 171.02 -1451.3 229.111 L -1451.3 229.111 L -1369.973 229.111 L -1369.973 229.111 Q -1369.42 221.918 -1369.42 212.513 L -1369.42 212.513 L -1369.42 212.513 Q -1369.42 161.062 -1379.102 140.869 L -1379.102 140.869 L -1379.102 140.869 Q -1388.784 120.676 -1407.04 120.676 Z  M -1034.71 128.421 L -1034.71 128.421 L -1065.138 215.28 L -1066.245 215.28 L -1109.951 163.275 L -1109.951 163.275 Q -1114.93 157.189 -1119.909 160.509 L -1119.909 160.509 L -1119.909 160.509 Q -1130.421 168.254 -1143.698 192.597 L -1143.698 192.597 L -1143.698 341.971 L -1143.698 341.971 Q -1143.698 350.27 -1135.4 355.802 L -1135.4 355.802 L -1081.182 387.337 L -1081.182 388.444 L -1266.518 388.444 L -1266.518 387.337 L -1239.409 361.888 L -1239.409 361.888 Q -1234.43 357.462 -1234.43 348.61 L -1234.43 348.61 L -1234.43 157.189 L -1234.43 157.189 Q -1234.43 148.891 -1239.409 143.358 L -1239.409 143.358 L -1266.518 115.696 L -1266.518 114.59 L -1143.698 114.59 L -1143.698 185.405 L -1143.698 185.405 Q -1135.953 152.764 -1117.696 131.464 L -1117.696 131.464 L -1117.696 131.464 Q -1099.439 110.164 -1072.331 110.164 L -1072.331 110.164 L -1072.331 110.164 Q -1048.541 110.164 -1034.71 128.421 Z  M -828.905 202.555 L -828.905 202.555 L -754.771 348.61 L -754.771 348.61 Q -749.792 358.015 -742.047 365.761 L -742.047 365.761 L -718.811 387.337 L -718.811 388.444 L -836.097 388.444 L -897.507 257.879 L -897.507 257.879 Q -900.273 251.24 -907.465 251.24 L -907.465 251.24 L -907.465 251.24 Q -910.785 251.24 -913.551 253.453 L -913.551 253.453 L -913.551 348.61 L -913.551 348.61 Q -913.551 356.909 -908.018 361.888 L -908.018 361.888 L -880.91 387.337 L -880.91 388.444 L -1035.817 388.444 L -1035.817 387.337 L -1008.708 361.888 L -1008.708 361.888 Q -1003.729 356.909 -1003.729 348.61 L -1003.729 348.61 L -1003.729 39.903 L -1003.729 39.903 Q -1003.729 31.051 -1008.708 26.072 L -1008.708 26.072 L -1035.817 0.623 L -1035.817 -0.484 L -913.551 -14.868 L -913.551 247.367 L -823.926 180.425 L -823.926 180.425 Q -817.84 176 -822.82 169.361 L -822.82 169.361 L -860.44 115.696 L -860.44 114.59 L -724.896 114.59 L -724.896 115.696 L -826.139 192.597 L -826.139 192.597 Q -831.671 196.469 -828.905 202.555 Z  M -467.64 239.069 L -467.64 239.069 L -633.612 239.069 L -633.612 240.175 L -633.612 240.175 Q -633.612 291.073 -611.482 316.246 L -611.482 316.246 L -611.482 316.246 Q -589.352 341.418 -554.498 341.418 L -554.498 341.418 L -554.498 341.418 Q -495.855 341.418 -470.406 290.52 L -470.406 290.52 L -469.299 290.52 L -469.299 290.52 Q -490.323 392.869 -591.565 392.869 L -591.565 392.869 L -591.565 392.869 Q -648.549 392.869 -687.829 357.462 L -687.829 357.462 L -687.829 357.462 Q -727.109 322.055 -727.109 253.453 L -727.109 253.453 L -727.109 253.453 Q -727.109 180.979 -687.829 145.571 L -687.829 145.571 L -687.829 145.571 Q -648.549 110.164 -588.246 110.164 L -588.246 110.164 L -588.246 110.164 Q -565.01 110.164 -544.54 116.25 L -544.54 116.25 L -544.54 116.25 Q -524.07 122.335 -506.09 135.06 L -506.09 135.06 L -506.09 135.06 Q -488.11 147.784 -477.598 171.297 L -477.598 171.297 L -477.598 171.297 Q -467.087 194.81 -467.087 226.898 L -467.087 226.898 L -467.087 226.898 Q -467.087 232.43 -467.64 239.069 Z  M -589.352 120.676 L -589.352 120.676 L -589.352 120.676 Q -610.929 120.676 -621.994 145.848 L -621.994 145.848 L -621.994 145.848 Q -633.058 171.02 -633.612 229.111 L -633.612 229.111 L -552.285 229.111 L -552.285 229.111 Q -551.732 221.918 -551.732 212.513 L -551.732 212.513 L -551.732 212.513 Q -551.732 161.062 -561.414 140.869 L -561.414 140.869 L -561.414 140.869 Q -571.096 120.676 -589.352 120.676 Z  M -453.256 -0.484 L -330.99 -14.868 L -330.99 348.61 L -330.99 348.61 Q -330.99 356.909 -325.457 361.888 L -325.457 361.888 L -298.348 387.337 L -298.348 388.444 L -453.256 388.444 L -453.256 387.337 L -426.147 361.888 L -426.147 361.888 Q -421.168 356.909 -421.168 348.61 L -421.168 348.61 L -421.168 39.903 L -421.168 39.903 Q -421.168 31.051 -426.147 26.072 L -426.147 26.072 L -453.256 0.623 L -453.256 -0.484 Z  M -26.708 239.069 L -26.708 239.069 L -192.68 239.069 L -192.68 240.175 L -192.68 240.175 Q -192.68 291.073 -170.55 316.246 L -170.55 316.246 L -170.55 316.246 Q -148.421 341.418 -113.566 341.418 L -113.566 341.418 L -113.566 341.418 Q -54.923 341.418 -29.474 290.52 L -29.474 290.52 L -28.368 290.52 L -28.368 290.52 Q -49.391 392.869 -150.634 392.869 L -150.634 392.869 L -150.634 392.869 Q -207.617 392.869 -246.897 357.462 L -246.897 357.462 L -246.897 357.462 Q -286.177 322.055 -286.177 253.453 L -286.177 253.453 L -286.177 253.453 Q -286.177 180.979 -246.897 145.571 L -246.897 145.571 L -246.897 145.571 Q -207.617 110.164 -147.314 110.164 L -147.314 110.164 L -147.314 110.164 Q -124.078 110.164 -103.608 116.25 L -103.608 116.25 L -103.608 116.25 Q -83.138 122.335 -65.158 135.06 L -65.158 135.06 L -65.158 135.06 Q -47.178 147.784 -36.666 171.297 L -36.666 171.297 L -36.666 171.297 Q -26.155 194.81 -26.155 226.898 L -26.155 226.898 L -26.155 226.898 Q -26.155 232.43 -26.708 239.069 Z  M -148.421 120.676 L -148.421 120.676 L -148.421 120.676 Q -169.997 120.676 -181.062 145.848 L -181.062 145.848 L -181.062 145.848 Q -192.126 171.02 -192.68 229.111 L -192.68 229.111 L -111.354 229.111 L -111.354 229.111 Q -110.8 221.918 -110.8 212.513 L -110.8 212.513 L -110.8 212.513 Q -110.8 161.062 -120.482 140.869 L -120.482 140.869 L -120.482 140.869 Q -130.164 120.676 -148.421 120.676 Z  M 208.419 206.428 L 208.419 206.428 L 137.604 377.932 L 137.604 377.932 Q 116.028 429.383 90.026 469.77 L 90.026 469.77 L 90.026 469.77 Q 72.875 496.325 55.448 507.667 L 55.448 507.667 L 55.448 507.667 Q 38.021 519.008 13.125 519.008 L 13.125 519.008 L 13.125 519.008 Q -0.152 519.008 -12.877 513.476 L -12.877 513.476 L 7.593 416.659 L 8.699 416.659 L 63.47 470.876 L 63.47 470.876 Q 67.896 475.302 70.109 475.302 L 70.109 475.302 L 70.109 475.302 Q 73.982 475.302 78.408 468.663 L 78.408 468.663 L 78.408 468.663 Q 89.472 453.173 99.431 430.49 L 99.431 430.49 L 102.75 421.638 L -0.152 160.509 L -0.152 160.509 Q -2.919 153.317 -8.451 142.252 L -8.451 142.252 L -23.388 115.696 L -23.388 114.59 L 119.901 114.59 L 119.901 115.696 L 97.771 146.125 L 97.771 146.125 Q 93.898 151.657 96.665 158.849 L 96.665 158.849 L 152.542 313.756 L 197.354 204.768 L 197.354 204.768 Q 200.12 197.576 200.397 194.533 L 200.397 194.533 L 200.397 194.533 Q 200.674 191.49 197.354 184.298 L 197.354 184.298 L 163.607 115.696 L 163.607 114.59 L 258.211 114.59 L 258.211 115.696 L 222.25 177.659 L 222.25 177.659 Q 215.058 189.277 208.419 206.428 Z " fill="rgb(255,255,255)"></path></svg>