<svg xmlns="http://www.w3.org/2000/svg" xmlns:xlink="http://www.w3.org/1999/xlink" style="isolation:isolate" viewBox="507 357 5111.38 533.876" width="5111.38pt" height="533.876pt"><path d=" M 4159.487 727.67 L 4159.487 727.67 L 4159.487 420.622 L 4159.487 420.622 Q 4159.487 412.324 4153.955 407.345 L 4153.955 407.345 L 4117.441 372.491 L 4117.441 371.384 L 4301.67 371.384 L 4301.67 372.491 L 4265.156 407.345 L 4265.156 407.345 Q 4259.624 412.324 4259.624 420.622 L 4259.624 420.622 L 4259.624 695.029 L 4259.624 695.029 Q 4259.624 778.568 4214.811 826.424 L 4214.811 826.424 L 4214.811 826.424 Q 4169.999 874.279 4085.353 877.045 L 4085.353 877.045 L 4084.8 875.939 L 4084.8 875.939 Q 4159.487 837.765 4159.487 727.67 Z  M 4550.628 593.786 L 4550.628 593.786 L 4550.628 593.786 Q 4550.628 597.106 4550.351 605.128 L 4550.351 605.128 L 4550.351 605.128 Q 4550.074 613.15 4550.074 613.703 L 4550.074 613.703 L 4546.755 692.263 L 4546.755 692.263 Q 4545.095 724.351 4561.693 724.351 L 4561.693 724.351 L 4561.693 724.351 Q 4572.204 724.351 4577.183 714.393 L 4577.183 714.393 L 4578.29 714.393 L 4578.29 714.393 Q 4578.29 725.457 4573.864 734.309 L 4573.864 734.309 L 4573.864 734.309 Q 4558.926 764.737 4519.646 764.737 L 4519.646 764.737 L 4519.646 764.737 Q 4494.751 764.737 4477.6 750.63 L 4477.6 750.63 L 4477.6 750.63 Q 4460.45 736.522 4459.343 711.073 L 4459.343 711.073 L 4459.343 711.073 Q 4451.045 735.416 4430.851 750.077 L 4430.851 750.077 L 4430.851 750.077 Q 4410.658 764.737 4384.103 764.737 L 4384.103 764.737 L 4384.103 764.737 Q 4352.015 764.737 4330.438 743.991 L 4330.438 743.991 L 4330.438 743.991 Q 4308.862 723.244 4308.862 686.731 L 4308.862 686.731 L 4308.862 686.731 Q 4308.862 648.004 4336.801 625.598 L 4336.801 625.598 L 4336.801 625.598 Q 4364.739 603.192 4401.806 603.192 L 4401.806 603.192 L 4401.806 603.192 Q 4439.427 603.192 4460.45 618.129 L 4460.45 618.129 L 4461.556 558.932 L 4461.556 556.166 L 4461.556 556.166 Q 4461.556 492.544 4421.17 492.544 L 4421.17 492.544 L 4421.17 492.544 Q 4412.871 492.544 4410.935 493.65 L 4410.935 493.65 L 4410.935 493.65 Q 4408.998 494.757 4406.232 499.182 L 4406.232 499.182 L 4361.42 582.168 L 4360.313 582.168 L 4325.459 503.055 L 4325.459 503.055 Q 4384.103 482.032 4437.214 482.032 L 4437.214 482.032 L 4437.214 482.032 Q 4495.857 482.032 4522.966 507.481 L 4522.966 507.481 L 4522.966 507.481 Q 4550.628 533.483 4550.628 593.786 Z  M 4439.98 620.342 L 4439.98 620.342 L 4439.98 620.342 Q 4418.957 620.342 4407.062 636.386 L 4407.062 636.386 L 4407.062 636.386 Q 4395.167 652.43 4395.167 677.326 L 4395.167 677.326 L 4395.167 677.326 Q 4395.167 699.455 4404.296 711.903 L 4404.296 711.903 L 4404.296 711.903 Q 4413.424 724.351 4427.809 724.351 L 4427.809 724.351 L 4427.809 724.351 Q 4446.619 724.351 4459.343 704.988 L 4459.343 704.988 L 4459.343 704.434 L 4460.45 623.661 L 4460.45 623.661 Q 4450.491 620.342 4439.98 620.342 Z  M 4722.132 764.737 L 4722.132 764.737 L 4722.132 764.737 Q 4668.468 764.737 4630.847 728.777 L 4630.847 728.777 L 4630.847 728.777 Q 4593.227 692.816 4593.227 626.428 L 4593.227 626.428 L 4593.227 626.428 Q 4593.227 588.254 4605.952 559.209 L 4605.952 559.209 L 4605.952 559.209 Q 4618.676 530.164 4640.253 513.843 L 4640.253 513.843 L 4640.253 513.843 Q 4661.829 497.523 4687.001 489.777 L 4687.001 489.777 L 4687.001 489.777 Q 4712.174 482.032 4740.389 482.032 L 4740.389 482.032 L 4740.389 482.032 Q 4784.648 482.032 4834.44 498.629 L 4834.44 498.629 L 4799.032 593.786 L 4797.926 593.786 L 4755.326 499.182 L 4755.326 499.182 Q 4753.667 494.757 4752.007 493.65 L 4752.007 493.65 L 4752.007 493.65 Q 4750.347 492.544 4745.368 492.544 L 4745.368 492.544 L 4742.602 492.544 L 4742.602 492.544 Q 4690.044 492.544 4690.044 599.872 L 4690.044 599.872 L 4690.044 599.872 Q 4690.044 658.515 4711.344 685.624 L 4711.344 685.624 L 4711.344 685.624 Q 4732.644 712.733 4764.731 712.733 L 4764.731 712.733 L 4764.731 712.733 Q 4808.991 712.733 4832.78 667.367 L 4832.78 667.367 L 4833.886 667.367 L 4833.886 667.367 Q 4826.694 713.286 4797.926 739.012 L 4797.926 739.012 L 4797.926 739.012 Q 4769.157 764.737 4722.132 764.737 Z  M 5054.629 574.423 L 5054.629 574.423 L 5128.763 720.478 L 5128.763 720.478 Q 5133.742 729.883 5141.488 737.629 L 5141.488 737.629 L 5164.724 759.205 L 5164.724 760.312 L 5047.437 760.312 L 4986.027 629.747 L 4986.027 629.747 Q 4983.261 623.108 4976.069 623.108 L 4976.069 623.108 L 4976.069 623.108 Q 4972.749 623.108 4969.983 625.321 L 4969.983 625.321 L 4969.983 720.478 L 4969.983 720.478 Q 4969.983 728.777 4975.516 733.756 L 4975.516 733.756 L 5002.624 759.205 L 5002.624 760.312 L 4847.717 760.312 L 4847.717 759.205 L 4874.826 733.756 L 4874.826 733.756 Q 4879.805 728.777 4879.805 720.478 L 4879.805 720.478 L 4879.805 411.771 L 4879.805 411.771 Q 4879.805 402.919 4874.826 397.94 L 4874.826 397.94 L 4847.717 372.491 L 4847.717 371.384 L 4969.983 357 L 4969.983 619.235 L 5059.608 552.293 L 5059.608 552.293 Q 5065.694 547.868 5060.715 541.229 L 5060.715 541.229 L 5023.094 487.564 L 5023.094 486.458 L 5158.638 486.458 L 5158.638 487.564 L 5057.395 564.465 L 5057.395 564.465 Q 5051.863 568.337 5054.629 574.423 Z  M 5415.894 610.937 L 5415.894 610.937 L 5249.922 610.937 L 5249.922 612.043 L 5249.922 612.043 Q 5249.922 662.941 5272.052 688.114 L 5272.052 688.114 L 5272.052 688.114 Q 5294.182 713.286 5329.036 713.286 L 5329.036 713.286 L 5329.036 713.286 Q 5387.679 713.286 5413.128 662.388 L 5413.128 662.388 L 5414.235 662.388 L 5414.235 662.388 Q 5393.212 764.737 5291.969 764.737 L 5291.969 764.737 L 5291.969 764.737 Q 5234.985 764.737 5195.705 729.33 L 5195.705 729.33 L 5195.705 729.33 Q 5156.425 693.923 5156.425 625.321 L 5156.425 625.321 L 5156.425 625.321 Q 5156.425 552.847 5195.705 517.439 L 5195.705 517.439 L 5195.705 517.439 Q 5234.985 482.032 5295.288 482.032 L 5295.288 482.032 L 5295.288 482.032 Q 5318.524 482.032 5338.994 488.118 L 5338.994 488.118 L 5338.994 488.118 Q 5359.464 494.203 5377.444 506.928 L 5377.444 506.928 L 5377.444 506.928 Q 5395.424 519.652 5405.936 543.165 L 5405.936 543.165 L 5405.936 543.165 Q 5416.448 566.678 5416.448 598.766 L 5416.448 598.766 L 5416.448 598.766 Q 5416.448 604.298 5415.894 610.937 Z  M 5294.182 492.544 L 5294.182 492.544 L 5294.182 492.544 Q 5272.605 492.544 5261.541 517.716 L 5261.541 517.716 L 5261.541 517.716 Q 5250.476 542.888 5249.922 600.979 L 5249.922 600.979 L 5331.249 600.979 L 5331.249 600.979 Q 5331.802 593.786 5331.802 584.381 L 5331.802 584.381 L 5331.802 584.381 Q 5331.802 532.93 5322.12 512.737 L 5322.12 512.737 L 5322.12 512.737 Q 5312.439 492.544 5294.182 492.544 Z  M 5550.332 486.458 L 5618.38 486.458 L 5618.38 497.523 L 5550.332 497.523 L 5550.332 682.305 L 5550.332 682.305 Q 5550.332 701.115 5558.077 711.35 L 5558.077 711.35 L 5558.077 711.35 Q 5565.822 721.585 5579.653 721.585 L 5579.653 721.585 L 5579.653 721.585 Q 5600.676 721.585 5611.741 701.115 L 5611.741 701.115 L 5612.848 701.668 L 5612.848 701.668 Q 5607.868 728.224 5588.228 746.481 L 5588.228 746.481 L 5588.228 746.481 Q 5568.588 764.737 5532.075 764.737 L 5532.075 764.737 L 5532.075 764.737 Q 5460.153 764.737 5460.153 688.944 L 5460.153 688.944 L 5460.153 497.523 L 5429.725 497.523 L 5429.725 486.458 L 5454.621 486.458 L 5454.621 486.458 Q 5466.239 486.458 5471.772 480.372 L 5471.772 480.372 L 5549.225 393.514 L 5550.332 393.514 L 5550.332 486.458 Z  M 3161.996 420.622 L 3161.996 420.622 L 3161.996 711.073 L 3161.996 711.073 Q 3161.996 719.372 3166.976 724.351 L 3166.976 724.351 L 3203.489 759.205 L 3203.489 760.312 L 3019.814 760.312 L 3019.814 759.205 L 3056.328 724.351 L 3056.328 724.351 Q 3061.86 718.819 3061.86 711.073 L 3061.86 711.073 L 3061.86 566.678 L 2933.509 566.678 L 2933.509 711.073 L 2933.509 711.073 Q 2933.509 719.372 2939.041 724.351 L 2939.041 724.351 L 2975.555 759.205 L 2975.555 760.312 L 2791.326 760.312 L 2791.326 759.205 L 2828.393 724.351 L 2828.393 724.351 Q 2833.372 719.372 2833.372 711.073 L 2833.372 711.073 L 2833.372 420.622 L 2833.372 420.622 Q 2833.372 412.324 2828.393 407.345 L 2828.393 407.345 L 2791.326 372.491 L 2791.326 371.384 L 2975.555 371.384 L 2975.555 372.491 L 2939.041 407.345 L 2939.041 407.345 Q 2933.509 412.324 2933.509 420.622 L 2933.509 420.622 L 2933.509 555.613 L 3061.86 555.613 L 3061.86 420.622 L 3061.86 420.622 Q 3061.86 412.324 3056.328 407.345 L 3056.328 407.345 L 3019.814 372.491 L 3019.814 371.384 L 3203.489 371.384 L 3203.489 372.491 L 3166.976 407.345 L 3166.976 407.345 Q 3161.996 412.324 3161.996 420.622 Z  M 3299.2 456.03 L 3299.2 456.03 L 3299.2 456.03 Q 3280.943 456.03 3267.942 444.688 L 3267.942 444.688 L 3267.942 444.688 Q 3254.941 433.347 3254.941 415.09 L 3254.941 415.09 L 3254.941 415.09 Q 3254.941 395.727 3267.942 383.832 L 3267.942 383.832 L 3267.942 383.832 Q 3280.943 371.937 3299.2 371.937 L 3299.2 371.937 L 3299.2 371.937 Q 3318.563 371.937 3331.288 383.832 L 3331.288 383.832 L 3331.288 383.832 Q 3344.012 395.727 3344.012 415.09 L 3344.012 415.09 L 3344.012 415.09 Q 3344.012 433.347 3331.288 444.688 L 3331.288 444.688 L 3331.288 444.688 Q 3318.563 456.03 3299.2 456.03 Z  M 3223.406 487.564 L 3223.406 486.458 L 3346.225 486.458 L 3346.225 720.478 L 3346.225 720.478 Q 3346.225 729.33 3351.204 733.756 L 3351.204 733.756 L 3378.313 759.205 L 3378.313 760.312 L 3223.406 760.312 L 3223.406 759.205 L 3250.515 733.756 L 3250.515 733.756 Q 3255.494 729.33 3255.494 720.478 L 3255.494 720.478 L 3255.494 529.057 L 3255.494 529.057 Q 3255.494 520.759 3250.515 515.226 L 3250.515 515.226 L 3223.406 487.564 Z  M 3402.656 573.87 L 3402.656 573.87 L 3402.656 573.87 Q 3402.656 528.504 3435.297 505.268 L 3435.297 505.268 L 3435.297 505.268 Q 3467.938 482.032 3521.602 482.032 L 3521.602 482.032 L 3521.602 482.032 Q 3568.628 482.032 3597.396 497.523 L 3597.396 497.523 L 3597.396 497.523 Q 3603.482 500.842 3609.014 494.757 L 3609.014 494.757 L 3666.551 433.9 L 3667.657 434.453 L 3667.657 517.439 L 3615.653 517.439 L 3615.653 517.439 Q 3643.868 540.122 3643.868 577.189 L 3643.868 577.189 L 3643.868 577.189 Q 3643.868 620.895 3610.95 642.195 L 3610.95 642.195 L 3610.95 642.195 Q 3578.033 663.495 3523.262 663.495 L 3523.262 663.495 L 3523.262 663.495 Q 3496.706 663.495 3478.45 659.069 L 3478.45 659.069 L 3478.45 659.069 Q 3461.299 665.708 3461.299 679.539 L 3461.299 679.539 L 3461.299 679.539 Q 3461.299 703.881 3517.73 703.881 L 3517.73 703.881 L 3569.181 703.881 L 3569.181 703.881 Q 3668.211 703.881 3668.211 777.462 L 3668.211 777.462 L 3668.211 777.462 Q 3668.211 827.807 3623.952 859.341 L 3623.952 859.341 L 3623.952 859.341 Q 3579.692 890.876 3512.197 890.876 L 3512.197 890.876 L 3512.197 890.876 Q 3466.831 890.876 3432.807 876.215 L 3432.807 876.215 L 3432.807 876.215 Q 3398.783 861.554 3398.783 834.999 L 3398.783 834.999 L 3398.783 834.999 Q 3398.783 817.295 3414.55 803.741 L 3414.55 803.741 L 3414.55 803.741 Q 3430.318 790.186 3462.959 785.207 L 3462.959 785.207 L 3462.959 785.207 Q 3434.19 779.122 3418.423 763.078 L 3418.423 763.078 L 3418.423 763.078 Q 3402.656 747.034 3402.656 724.904 L 3402.656 724.904 L 3402.656 724.904 Q 3402.656 700.562 3421.466 682.858 L 3421.466 682.858 L 3421.466 682.858 Q 3440.276 665.154 3472.364 657.409 L 3472.364 657.409 L 3472.364 657.409 Q 3402.656 639.705 3402.656 573.87 Z  M 3559.222 790.186 L 3487.301 787.974 L 3487.301 787.974 Q 3474.577 786.867 3467.938 785.761 L 3467.938 785.761 L 3467.938 785.761 Q 3445.808 799.038 3445.808 821.168 L 3445.808 821.168 L 3445.808 821.168 Q 3445.808 847.723 3471.257 863.491 L 3471.257 863.491 L 3471.257 863.491 Q 3496.706 879.258 3531.007 879.258 L 3531.007 879.258 L 3531.007 879.258 Q 3564.202 879.258 3588.268 865.427 L 3588.268 865.427 L 3588.268 865.427 Q 3612.333 851.596 3612.333 826.147 L 3612.333 826.147 L 3612.333 826.147 Q 3612.333 808.997 3600.439 800.145 L 3600.439 800.145 L 3600.439 800.145 Q 3588.544 791.293 3559.222 790.186 L 3559.222 790.186 Z  M 3487.855 572.21 L 3487.855 572.21 L 3487.855 572.21 Q 3487.855 616.469 3496.706 635.279 L 3496.706 635.279 L 3496.706 635.279 Q 3505.558 654.09 3523.262 654.09 L 3523.262 654.09 L 3523.262 654.09 Q 3540.966 654.09 3549.817 635.556 L 3549.817 635.556 L 3549.817 635.556 Q 3558.669 617.023 3558.669 572.763 L 3558.669 572.763 L 3558.669 572.763 Q 3558.669 529.057 3550.094 510.247 L 3550.094 510.247 L 3550.094 510.247 Q 3541.519 491.437 3523.262 491.437 L 3523.262 491.437 L 3523.262 491.437 Q 3505.005 491.437 3496.43 509.971 L 3496.43 509.971 L 3496.43 509.971 Q 3487.855 528.504 3487.855 572.21 Z  M 3975.812 598.766 L 3975.812 598.766 L 3975.812 598.766 Q 3975.812 618.682 3974.982 664.878 L 3974.982 664.878 L 3974.982 664.878 Q 3974.152 711.073 3974.152 720.478 L 3974.152 720.478 L 3974.152 720.478 Q 3974.152 728.777 3979.685 733.756 L 3979.685 733.756 L 4006.793 759.205 L 4006.793 760.312 L 3851.886 760.312 L 3851.886 759.205 L 3877.888 733.756 L 3877.888 733.756 Q 3883.421 728.777 3883.421 721.032 L 3883.421 721.032 L 3883.421 721.032 Q 3883.421 719.372 3884.251 673.176 L 3884.251 673.176 L 3884.251 673.176 Q 3885.081 626.981 3885.081 611.49 L 3885.081 611.49 L 3885.081 611.49 Q 3885.081 569.997 3875.952 548.974 L 3875.952 548.974 L 3875.952 548.974 Q 3866.824 527.951 3843.034 527.951 L 3843.034 527.951 L 3843.034 527.951 Q 3818.692 527.951 3801.541 552.847 L 3801.541 552.847 L 3801.541 720.478 L 3801.541 720.478 Q 3801.541 728.777 3807.074 733.756 L 3807.074 733.756 L 3834.183 759.205 L 3834.183 760.312 L 3679.275 760.312 L 3679.275 759.205 L 3706.384 733.756 L 3706.384 733.756 Q 3711.363 728.777 3711.363 720.478 L 3711.363 720.478 L 3711.363 411.771 L 3711.363 411.771 Q 3711.363 402.919 3706.384 397.94 L 3706.384 397.94 L 3679.275 372.491 L 3679.275 371.384 L 3801.541 357 L 3801.541 546.761 L 3801.541 546.761 Q 3824.224 482.032 3889.506 482.032 L 3889.506 482.032 L 3889.506 482.032 Q 3931.553 482.032 3953.682 511.907 L 3953.682 511.907 L 3953.682 511.907 Q 3975.812 541.782 3975.812 598.766 Z  M 507 372.491 L 507 371.384 L 705.06 371.384 L 705.06 371.384 Q 771.448 371.384 807.962 393.514 L 807.962 393.514 L 807.962 393.514 Q 844.476 415.643 844.476 460.456 L 844.476 460.456 L 844.476 460.456 Q 844.476 501.949 813.771 526.291 L 813.771 526.291 L 813.771 526.291 Q 783.067 550.634 729.956 555.06 L 729.956 555.06 L 729.956 556.166 L 729.956 556.166 Q 786.939 557.273 821.793 582.168 L 821.793 582.168 L 821.793 582.168 Q 856.647 607.064 856.647 651.323 L 856.647 651.323 L 856.647 651.323 Q 856.647 702.775 818.474 731.543 L 818.474 731.543 L 818.474 731.543 Q 780.3 760.312 714.465 760.312 L 714.465 760.312 L 507 760.312 L 507 759.205 L 544.067 724.351 L 544.067 724.351 Q 549.046 719.372 549.046 711.073 L 549.046 711.073 L 549.046 420.622 L 549.046 420.622 Q 549.046 412.324 544.067 407.345 L 544.067 407.345 L 507 372.491 Z  M 676.291 563.358 L 676.291 563.358 L 649.183 563.358 L 649.183 738.182 L 649.183 738.182 Q 649.183 745.927 651.396 747.587 L 651.396 747.587 L 651.396 747.587 Q 653.608 749.247 662.46 749.247 L 662.46 749.247 L 677.951 749.247 L 677.951 749.247 Q 749.319 749.247 749.319 654.643 L 749.319 654.643 L 749.319 654.643 Q 749.319 609.277 731.892 586.318 L 731.892 586.318 L 731.892 586.318 Q 714.465 563.358 676.291 563.358 Z  M 649.183 393.514 L 649.183 393.514 L 649.183 552.293 L 675.738 552.293 L 675.738 552.293 Q 706.719 552.293 723.317 529.334 L 723.317 529.334 L 723.317 529.334 Q 739.914 506.375 739.914 464.882 L 739.914 464.882 L 739.914 464.882 Q 739.914 427.261 723.87 404.855 L 723.87 404.855 L 723.87 404.855 Q 707.826 382.449 677.951 382.449 L 677.951 382.449 L 659.141 382.449 L 659.141 382.449 Q 653.055 382.449 651.119 384.385 L 651.119 384.385 L 651.119 384.385 Q 649.183 386.322 649.183 393.514 Z  M 1142.672 610.937 L 1142.672 610.937 L 976.7 610.937 L 976.7 612.043 L 976.7 612.043 Q 976.7 662.941 998.83 688.114 L 998.83 688.114 L 998.83 688.114 Q 1020.96 713.286 1055.814 713.286 L 1055.814 713.286 L 1055.814 713.286 Q 1114.457 713.286 1139.906 662.388 L 1139.906 662.388 L 1141.012 662.388 L 1141.012 662.388 Q 1119.989 764.737 1018.747 764.737 L 1018.747 764.737 L 1018.747 764.737 Q 961.763 764.737 922.483 729.33 L 922.483 729.33 L 922.483 729.33 Q 883.203 693.923 883.203 625.321 L 883.203 625.321 L 883.203 625.321 Q 883.203 552.847 922.483 517.439 L 922.483 517.439 L 922.483 517.439 Q 961.763 482.032 1022.066 482.032 L 1022.066 482.032 L 1022.066 482.032 Q 1045.302 482.032 1065.772 488.118 L 1065.772 488.118 L 1065.772 488.118 Q 1086.242 494.203 1104.222 506.928 L 1104.222 506.928 L 1104.222 506.928 Q 1122.202 519.652 1132.714 543.165 L 1132.714 543.165 L 1132.714 543.165 Q 1143.225 566.678 1143.225 598.766 L 1143.225 598.766 L 1143.225 598.766 Q 1143.225 604.298 1142.672 610.937 Z  M 1020.96 492.544 L 1020.96 492.544 L 1020.96 492.544 Q 999.383 492.544 988.318 517.716 L 988.318 517.716 L 988.318 517.716 Q 977.254 542.888 976.7 600.979 L 976.7 600.979 L 1058.027 600.979 L 1058.027 600.979 Q 1058.58 593.786 1058.58 584.381 L 1058.58 584.381 L 1058.58 584.381 Q 1058.58 532.93 1048.898 512.737 L 1048.898 512.737 L 1048.898 512.737 Q 1039.216 492.544 1020.96 492.544 Z  M 1393.29 500.289 L 1393.29 500.289 L 1362.862 587.148 L 1361.755 587.148 L 1318.049 535.143 L 1318.049 535.143 Q 1313.07 529.057 1308.091 532.377 L 1308.091 532.377 L 1308.091 532.377 Q 1297.579 540.122 1284.302 564.465 L 1284.302 564.465 L 1284.302 713.839 L 1284.302 713.839 Q 1284.302 722.138 1292.6 727.67 L 1292.6 727.67 L 1346.818 759.205 L 1346.818 760.312 L 1161.482 760.312 L 1161.482 759.205 L 1188.591 733.756 L 1188.591 733.756 Q 1193.57 729.33 1193.57 720.478 L 1193.57 720.478 L 1193.57 529.057 L 1193.57 529.057 Q 1193.57 520.759 1188.591 515.226 L 1188.591 515.226 L 1161.482 487.564 L 1161.482 486.458 L 1284.302 486.458 L 1284.302 557.273 L 1284.302 557.273 Q 1292.047 524.632 1310.304 503.332 L 1310.304 503.332 L 1310.304 503.332 Q 1328.561 482.032 1355.669 482.032 L 1355.669 482.032 L 1355.669 482.032 Q 1379.459 482.032 1393.29 500.289 Z  M 1599.095 574.423 L 1599.095 574.423 L 1673.229 720.478 L 1673.229 720.478 Q 1678.208 729.883 1685.953 737.629 L 1685.953 737.629 L 1709.189 759.205 L 1709.189 760.312 L 1591.903 760.312 L 1530.493 629.747 L 1530.493 629.747 Q 1527.727 623.108 1520.535 623.108 L 1520.535 623.108 L 1520.535 623.108 Q 1517.215 623.108 1514.449 625.321 L 1514.449 625.321 L 1514.449 720.478 L 1514.449 720.478 Q 1514.449 728.777 1519.982 733.756 L 1519.982 733.756 L 1547.09 759.205 L 1547.09 760.312 L 1392.183 760.312 L 1392.183 759.205 L 1419.292 733.756 L 1419.292 733.756 Q 1424.271 728.777 1424.271 720.478 L 1424.271 720.478 L 1424.271 411.771 L 1424.271 411.771 Q 1424.271 402.919 1419.292 397.94 L 1419.292 397.94 L 1392.183 372.491 L 1392.183 371.384 L 1514.449 357 L 1514.449 619.235 L 1604.074 552.293 L 1604.074 552.293 Q 1610.16 547.868 1605.18 541.229 L 1605.18 541.229 L 1567.56 487.564 L 1567.56 486.458 L 1703.104 486.458 L 1703.104 487.564 L 1601.861 564.465 L 1601.861 564.465 Q 1596.329 568.337 1599.095 574.423 Z  M 1960.36 610.937 L 1960.36 610.937 L 1794.388 610.937 L 1794.388 612.043 L 1794.388 612.043 Q 1794.388 662.941 1816.518 688.114 L 1816.518 688.114 L 1816.518 688.114 Q 1838.648 713.286 1873.502 713.286 L 1873.502 713.286 L 1873.502 713.286 Q 1932.145 713.286 1957.594 662.388 L 1957.594 662.388 L 1958.701 662.388 L 1958.701 662.388 Q 1937.677 764.737 1836.435 764.737 L 1836.435 764.737 L 1836.435 764.737 Q 1779.451 764.737 1740.171 729.33 L 1740.171 729.33 L 1740.171 729.33 Q 1700.891 693.923 1700.891 625.321 L 1700.891 625.321 L 1700.891 625.321 Q 1700.891 552.847 1740.171 517.439 L 1740.171 517.439 L 1740.171 517.439 Q 1779.451 482.032 1839.754 482.032 L 1839.754 482.032 L 1839.754 482.032 Q 1862.99 482.032 1883.46 488.118 L 1883.46 488.118 L 1883.46 488.118 Q 1903.93 494.203 1921.91 506.928 L 1921.91 506.928 L 1921.91 506.928 Q 1939.89 519.652 1950.402 543.165 L 1950.402 543.165 L 1950.402 543.165 Q 1960.913 566.678 1960.913 598.766 L 1960.913 598.766 L 1960.913 598.766 Q 1960.913 604.298 1960.36 610.937 Z  M 1838.648 492.544 L 1838.648 492.544 L 1838.648 492.544 Q 1817.071 492.544 1806.006 517.716 L 1806.006 517.716 L 1806.006 517.716 Q 1794.942 542.888 1794.388 600.979 L 1794.388 600.979 L 1875.715 600.979 L 1875.715 600.979 Q 1876.268 593.786 1876.268 584.381 L 1876.268 584.381 L 1876.268 584.381 Q 1876.268 532.93 1866.586 512.737 L 1866.586 512.737 L 1866.586 512.737 Q 1856.904 492.544 1838.648 492.544 Z  M 1974.744 371.384 L 2097.01 357 L 2097.01 720.478 L 2097.01 720.478 Q 2097.01 728.777 2102.543 733.756 L 2102.543 733.756 L 2129.652 759.205 L 2129.652 760.312 L 1974.744 760.312 L 1974.744 759.205 L 2001.853 733.756 L 2001.853 733.756 Q 2006.832 728.777 2006.832 720.478 L 2006.832 720.478 L 2006.832 411.771 L 2006.832 411.771 Q 2006.832 402.919 2001.853 397.94 L 2001.853 397.94 L 1974.744 372.491 L 1974.744 371.384 Z  M 2401.292 610.937 L 2401.292 610.937 L 2235.32 610.937 L 2235.32 612.043 L 2235.32 612.043 Q 2235.32 662.941 2257.45 688.114 L 2257.45 688.114 L 2257.45 688.114 Q 2279.579 713.286 2314.434 713.286 L 2314.434 713.286 L 2314.434 713.286 Q 2373.077 713.286 2398.526 662.388 L 2398.526 662.388 L 2399.632 662.388 L 2399.632 662.388 Q 2378.609 764.737 2277.366 764.737 L 2277.366 764.737 L 2277.366 764.737 Q 2220.383 764.737 2181.103 729.33 L 2181.103 729.33 L 2181.103 729.33 Q 2141.823 693.923 2141.823 625.321 L 2141.823 625.321 L 2141.823 625.321 Q 2141.823 552.847 2181.103 517.439 L 2181.103 517.439 L 2181.103 517.439 Q 2220.383 482.032 2280.686 482.032 L 2280.686 482.032 L 2280.686 482.032 Q 2303.922 482.032 2324.392 488.118 L 2324.392 488.118 L 2324.392 488.118 Q 2344.862 494.203 2362.842 506.928 L 2362.842 506.928 L 2362.842 506.928 Q 2380.822 519.652 2391.334 543.165 L 2391.334 543.165 L 2391.334 543.165 Q 2401.845 566.678 2401.845 598.766 L 2401.845 598.766 L 2401.845 598.766 Q 2401.845 604.298 2401.292 610.937 Z  M 2279.579 492.544 L 2279.579 492.544 L 2279.579 492.544 Q 2258.003 492.544 2246.938 517.716 L 2246.938 517.716 L 2246.938 517.716 Q 2235.874 542.888 2235.32 600.979 L 2235.32 600.979 L 2316.646 600.979 L 2316.646 600.979 Q 2317.2 593.786 2317.2 584.381 L 2317.2 584.381 L 2317.2 584.381 Q 2317.2 532.93 2307.518 512.737 L 2307.518 512.737 L 2307.518 512.737 Q 2297.836 492.544 2279.579 492.544 Z  M 2636.419 578.296 L 2636.419 578.296 L 2565.604 749.8 L 2565.604 749.8 Q 2544.028 801.251 2518.026 841.638 L 2518.026 841.638 L 2518.026 841.638 Q 2500.875 868.193 2483.448 879.535 L 2483.448 879.535 L 2483.448 879.535 Q 2466.021 890.876 2441.125 890.876 L 2441.125 890.876 L 2441.125 890.876 Q 2427.848 890.876 2415.123 885.344 L 2415.123 885.344 L 2435.593 788.527 L 2436.699 788.527 L 2491.47 842.744 L 2491.47 842.744 Q 2495.896 847.17 2498.109 847.17 L 2498.109 847.17 L 2498.109 847.17 Q 2501.982 847.17 2506.408 840.531 L 2506.408 840.531 L 2506.408 840.531 Q 2517.472 825.041 2527.431 802.358 L 2527.431 802.358 L 2530.75 793.506 L 2427.848 532.377 L 2427.848 532.377 Q 2425.081 525.185 2419.549 514.12 L 2419.549 514.12 L 2404.612 487.564 L 2404.612 486.458 L 2547.901 486.458 L 2547.901 487.564 L 2525.771 517.993 L 2525.771 517.993 Q 2521.898 523.525 2524.665 530.717 L 2524.665 530.717 L 2580.542 685.624 L 2625.354 576.636 L 2625.354 576.636 Q 2628.12 569.444 2628.397 566.401 L 2628.397 566.401 L 2628.397 566.401 Q 2628.674 563.358 2625.354 556.166 L 2625.354 556.166 L 2591.607 487.564 L 2591.607 486.458 L 2686.211 486.458 L 2686.211 487.564 L 2650.25 549.527 L 2650.25 549.527 Q 2643.058 561.145 2636.419 578.296 Z " fill="rgb(0,0,0)"></path></svg>