<svg xmlns="http://www.w3.org/2000/svg" viewBox="0 0 40 40"><path d="M2.605 9.32a1.305 1.305 0 01-2.6-.236V1.187A1.305 1.305 0 011.187.005h7.897a1.305 1.305 0 11.237 2.6l-6.815-.099.099 6.815zM9.32 37.013a1.305 1.305 0 01-.237 2.599H1.187a1.305 1.305 0 01-1.182-1.182v-7.897a1.305 1.305 0 012.6-.236l-.099 6.814 6.815-.098zM30.296 2.605a1.305 1.305 0 11.236-2.6h7.897a1.305 1.305 0 011.182 1.182v7.897a1.305 1.305 0 11-2.6.237l.1-6.815-6.815.099zm6.716 27.69a1.305 1.305 0 112.599.237v7.897a1.305 1.305 0 01-1.182 1.182h-7.897a1.305 1.305 0 11-.236-2.6l6.814.1-.098-6.815z" fill="#fff"/></svg>