<svg xmlns="http://www.w3.org/2000/svg" viewBox="0 0 39.618 39.617" width="52.824" height="52.823"><path d="M7.903 1.187C7.968.47 8.603-.06 9.32.005s1.247.7 1.182 1.418V9.32c-.057.628-.555 1.125-1.182 1.182H1.424C.706 10.567.07 10.038.005 9.32S.47 7.967 1.187 7.902l6.815.1-.1-6.814zM1.17 31.713c-.7-.074-1.23-.706-1.164-1.417s.69-1.238 1.4-1.182h7.896c.628.056 1.126.554 1.182 1.182v7.897c.066.718-.464 1.352-1.182 1.418s-1.352-.464-1.418-1.182l.1-6.814-6.814.098zm37.26-23.8c.718.065 1.247.7 1.182 1.418s-.7 1.247-1.418 1.182h-7.897c-.628-.057-1.125-.555-1.182-1.182V1.424C29.05.706 29.578.07 30.296.005s1.353.464 1.418 1.182l-.1 6.815 6.815-.1zm-6.714 30.5c-.037.47-.323.882-.75 1.08s-.926.153-1.31-.12-.6-.73-.54-1.198V30.28c.056-.628.554-1.125 1.182-1.182h7.897c.718-.065 1.352.464 1.418 1.182s-.464 1.353-1.182 1.418l-6.814-.1.098 6.816z" fill-rule="evenodd" fill="#fff"/></svg>