<svg xmlns="http://www.w3.org/2000/svg" viewBox="602.88 255.16 51.065 52.823" width="68.087" height="70.431"><path d="M628.337 304.537h.14a22.03 22.03 0 0 0 15.571-6.45c4.13-4.13 6.45-9.724 6.45-15.56v-.07a1.72 1.72 0 0 1 .854-1.497c.26-.15.563-.23.864-.23s.603.08.864.23a1.73 1.73 0 0 1 .864 1.497 25.54 25.54 0 0 1-7.505 18.032c-4.77 4.782-11.26 7.485-18.032 7.495-6.76-.01-13.25-2.713-18.033-7.495s-7.485-11.27-7.495-18.032a25.54 25.54 0 0 1 7.495-18.033c4.782-4.792 11.272-7.495 18.033-7.505a25.44 25.44 0 0 1 17.811 7.314q.292.29 1.708 1.587 0-1.898 0-2.3v-6.72a1.61 1.61 0 0 1 .412-1.075c.27-.302.633-.492 1.025-.543l.22-.02c.402.01.773.16 1.075.422.35.312.552.764.552 1.236v14.044h-14.074a1.64 1.64 0 0 1-1.417-.813c-.15-.252-.22-.533-.22-.824a1.59 1.59 0 0 1 .221-.824c.292-.502.834-.814 1.417-.814h5.163q.412 0 2.574 0-1.6-1.486-1.92-1.768c-4.028-3.506-9.192-5.445-14.546-5.455h-.07c-5.837 0-11.442 2.32-15.56 6.45-4.13 4.13-6.45 9.735-6.45 15.56v.15c0 5.837 2.32 11.432 6.45 15.56 4.12 4.13 9.724 6.45 15.56 6.45h0z" fill="#fff"/></svg>